<svg width="1509" height="580" viewBox="0 0 1509 580" fill="none" xmlns="http://www.w3.org/2000/svg">
<g opacity="0.7">
<path opacity="0.9" d="M1224.69 13.695L1222.33 33.1945C1222.25 33.8881 1222.35 34.5915 1222.62 35.2339C1222.9 35.8762 1223.34 36.4348 1223.9 36.8535L1239.61 48.6409C1240.17 49.0584 1240.83 49.322 1241.52 49.4056C1242.21 49.4891 1242.91 49.3897 1243.56 49.1172L1261.62 41.4051C1262.26 41.1297 1262.82 40.6908 1263.24 40.1322C1263.66 39.5737 1263.92 38.9151 1264 38.2224L1266.36 18.7228C1266.44 18.0313 1266.34 17.3303 1266.07 16.6898C1265.79 16.0492 1265.36 15.4916 1264.8 15.0724L1249.09 3.28494C1248.53 2.86393 1247.87 2.59806 1247.18 2.51441C1246.48 2.43075 1245.78 2.53229 1245.14 2.80868L1227.08 10.5207C1226.43 10.7938 1225.87 11.2309 1225.46 11.788C1225.04 12.3452 1224.77 13.0028 1224.69 13.695V13.695Z" fill="#F2CB51"/>
<path opacity="0.9" d="M1269.39 19.0895L1267.03 38.589C1266.95 39.2826 1267.05 39.986 1267.33 40.6284C1267.6 41.2707 1268.04 41.8294 1268.6 42.248L1284.31 54.0355C1284.87 54.4529 1285.53 54.7165 1286.22 54.8001C1286.91 54.8837 1287.62 54.7842 1288.26 54.5117L1306.32 46.7997C1306.96 46.5243 1307.52 46.0853 1307.94 45.5268C1308.36 44.9682 1308.62 44.3096 1308.71 43.6169L1311.06 24.1174C1311.14 23.4258 1311.04 22.7248 1310.77 22.0843C1310.49 21.4438 1310.06 20.8861 1309.5 20.4669L1293.79 8.67947C1293.23 8.25846 1292.57 7.9926 1291.88 7.90894C1291.19 7.82528 1290.48 7.92682 1289.84 8.20321L1271.78 15.9153C1271.13 16.1884 1270.58 16.6254 1270.16 17.1826C1269.74 17.7397 1269.47 18.3973 1269.39 19.0895V19.0895Z" fill="#F2CB51"/>
<path opacity="0.9" d="M1314.05 46.6407L1314.05 46.6399C1313.67 46.3529 1313.37 45.9699 1313.18 45.5295C1312.99 45.0891 1312.92 44.6068 1312.98 44.1313L1315.33 24.6331C1315.39 24.159 1315.57 23.7085 1315.86 23.3269C1316.15 22.9449 1316.53 22.6452 1316.97 22.458L1316.97 22.4575L1335.03 14.7454L1335.04 14.7437C1335.48 14.5547 1335.96 14.4853 1336.43 14.5425C1336.91 14.5997 1337.36 14.7815 1337.74 15.0694L1337.74 15.0719L1353.45 26.8577C1353.45 26.8579 1353.45 26.858 1353.45 26.8582C1353.83 27.1458 1354.13 27.5283 1354.32 27.9675C1354.51 28.4066 1354.58 28.887 1354.52 29.361C1354.52 29.3616 1354.52 29.3621 1354.52 29.3627L1352.17 48.8597C1352.11 49.335 1351.93 49.7869 1351.64 50.1702C1351.36 50.5531 1350.97 50.854 1350.53 51.043C1350.53 51.0433 1350.53 51.0435 1350.53 51.0437L1332.47 58.7536C1332.47 58.7538 1332.47 58.754 1332.47 58.7542C1332.03 58.9409 1331.55 59.009 1331.07 58.9517C1330.6 58.8943 1330.15 58.7135 1329.76 58.4272C1329.76 58.427 1329.76 58.4267 1329.76 58.4265L1314.05 46.6407Z" fill="#F2CB51" fill-opacity="0.8" stroke="#F2CB51" stroke-width="2.5"/>
<path opacity="0.9" d="M1358.6 52.2336L1358.6 52.2342L1374.31 64.0204C1374.31 64.0204 1374.31 64.0205 1374.31 64.0206C1374.73 64.3333 1375.23 64.5308 1375.75 64.5934C1376.26 64.656 1376.79 64.5816 1377.27 64.3774C1377.27 64.3774 1377.27 64.3774 1377.27 64.3773L1395.33 56.667L1358.6 52.2336ZM1358.6 52.2336C1358.18 51.9202 1357.86 51.5021 1357.65 51.0213C1357.44 50.5405 1357.37 50.014 1357.43 49.4949L1359.78 29.9965C1359.85 29.4787 1360.05 28.9868 1360.36 28.5701C1360.67 28.1531 1361.09 27.8259 1361.57 27.6215L1361.57 27.6211L1379.64 19.909L1379.64 19.9077C1380.12 19.7012 1380.65 19.6254 1381.16 19.6879C1381.68 19.7504 1382.17 19.949 1382.59 20.2635L1382.59 20.2655M1358.6 52.2336L1382.59 20.2655M1382.59 20.2655L1398.3 32.0516C1398.3 32.0519 1398.3 32.0522 1398.3 32.0525C1398.72 32.3663 1399.05 32.7837 1399.25 33.263C1399.46 33.7422 1399.53 34.2666 1399.47 34.784C1399.47 34.7846 1399.47 34.7851 1399.47 34.7857L1397.12 54.2832C1397.05 54.802 1396.86 55.2953 1396.54 55.7136C1396.23 56.1314 1395.81 56.4598 1395.33 56.6661L1382.59 20.2655Z" fill="#F2CB51" fill-opacity="0.9" stroke="#F2CB51" stroke-width="2"/>
<path opacity="0.9" d="M1242.11 76.9456L1242.11 76.9446C1241.76 76.6839 1241.49 76.3361 1241.31 75.9361C1241.14 75.5361 1241.08 75.0981 1241.13 74.6662C1241.13 74.6661 1241.13 74.6661 1241.13 74.6661L1243.49 55.1683C1243.54 54.7377 1243.7 54.3287 1243.96 53.9821C1244.23 53.6352 1244.57 53.363 1244.97 53.1929L1244.97 53.1923L1263.04 45.4802L1263.04 45.4782C1263.44 45.3067 1263.88 45.2437 1264.31 45.2956C1264.74 45.3475 1265.15 45.5125 1265.49 45.7737L1265.5 45.7768L1281.21 57.5622C1281.21 57.5625 1281.21 57.5627 1281.21 57.563C1281.55 57.8242 1281.83 58.1716 1282 58.5706C1282.17 58.9694 1282.23 59.4058 1282.18 59.8365C1282.18 59.837 1282.18 59.8376 1282.18 59.8381L1279.83 79.3346C1279.83 79.3346 1279.83 79.3347 1279.83 79.3347C1279.77 79.7665 1279.61 80.1771 1279.35 80.5253C1279.09 80.8731 1278.74 81.1464 1278.34 81.3182C1278.34 81.3184 1278.34 81.3187 1278.34 81.3189L1260.28 89.0284C1260.28 89.0285 1260.28 89.0286 1260.28 89.0287C1259.88 89.1985 1259.44 89.2605 1259.01 89.2084C1258.58 89.1562 1258.17 88.992 1257.82 88.7319C1257.82 88.7316 1257.82 88.7314 1257.82 88.7311L1242.11 76.9456Z" fill="#F2CB51" fill-opacity="0.46" stroke="#F2CB51" stroke-width="3"/>
<path opacity="0.9" d="M1286.7 60.3805L1284.34 79.88C1284.26 80.5736 1284.36 81.277 1284.63 81.9194C1284.91 82.5618 1285.35 83.1204 1285.91 83.539L1301.62 95.3265C1302.18 95.7439 1302.84 96.0075 1303.53 96.0911C1304.22 96.1747 1304.92 96.0752 1305.57 95.8028L1323.63 88.0907C1324.27 87.8153 1324.83 87.3763 1325.25 86.8178C1325.67 86.2592 1325.93 85.6006 1326.01 84.9079L1328.37 65.4084C1328.45 64.7168 1328.35 64.0158 1328.07 63.3753C1327.8 62.7348 1327.36 62.1771 1326.81 61.7579L1311.1 49.9705C1310.54 49.5495 1309.88 49.2836 1309.19 49.2C1308.49 49.1163 1307.79 49.2178 1307.15 49.4942L1289.08 57.2063C1288.44 57.4794 1287.88 57.9164 1287.47 58.4736C1287.05 59.0307 1286.78 59.6884 1286.7 60.3805V60.3805Z" fill="#F2CB51"/>
<path opacity="0.9" d="M1331.51 87.7327L1331.51 87.7318C1331.16 87.471 1330.89 87.1232 1330.72 86.7232C1330.55 86.3232 1330.48 85.8852 1330.54 85.4533C1330.54 85.4532 1330.54 85.4532 1330.54 85.4532L1332.89 65.9554C1332.94 65.5248 1333.11 65.1158 1333.37 64.7692C1333.63 64.4223 1333.98 64.1501 1334.38 63.98L1334.38 63.9794L1352.44 56.2673L1352.45 56.2653C1352.84 56.0938 1353.28 56.0308 1353.71 56.0827C1354.14 56.1346 1354.55 56.2996 1354.9 56.5608L1354.9 56.5639L1370.61 68.3493C1370.61 68.3496 1370.61 68.3498 1370.61 68.3501C1370.96 68.6113 1371.23 68.9587 1371.4 69.3577C1371.57 69.7565 1371.63 70.1929 1371.58 70.6236C1371.58 70.6241 1371.58 70.6247 1371.58 70.6252L1369.23 90.1217C1369.23 90.1217 1369.23 90.1218 1369.23 90.1218C1369.18 90.5536 1369.01 90.9642 1368.75 91.3124C1368.49 91.6602 1368.14 91.9336 1367.74 92.1053C1367.74 92.1055 1367.74 92.1058 1367.74 92.106L1349.68 99.8155C1349.68 99.8156 1349.68 99.8157 1349.68 99.8158C1349.28 99.9857 1348.84 100.048 1348.41 99.9955C1347.98 99.9434 1347.57 99.7791 1347.22 99.519C1347.22 99.5187 1347.22 99.5185 1347.22 99.5182L1331.51 87.7327Z" fill="#F2CB51" fill-opacity="0.65" stroke="#F2CB51" stroke-width="3"/>
<path opacity="0.9" d="M1367.52 171.114L1367.52 171.113C1367.17 170.852 1366.89 170.504 1366.72 170.104C1366.55 169.704 1366.49 169.266 1366.54 168.834C1366.54 168.834 1366.54 168.834 1366.54 168.834L1368.89 149.336C1368.95 148.906 1369.11 148.497 1369.37 148.15C1369.63 147.803 1369.98 147.531 1370.38 147.361L1370.38 147.36L1388.45 139.648L1388.45 139.646C1388.85 139.475 1389.29 139.412 1389.72 139.464C1390.15 139.515 1390.56 139.68 1390.9 139.942L1390.91 139.945L1406.61 151.73C1406.62 151.73 1406.62 151.731 1406.62 151.731C1406.96 151.992 1407.23 152.34 1407.4 152.739C1407.57 153.137 1407.64 153.574 1407.59 154.004C1407.59 154.005 1407.59 154.006 1407.59 154.006L1405.23 173.503C1405.23 173.503 1405.23 173.503 1405.23 173.503C1405.18 173.934 1405.02 174.345 1404.76 174.693C1404.5 175.041 1404.15 175.314 1403.75 175.486C1403.75 175.486 1403.75 175.487 1403.75 175.487L1385.69 183.196C1385.69 183.196 1385.69 183.197 1385.69 183.197C1385.29 183.367 1384.85 183.428 1384.42 183.376C1383.99 183.324 1383.58 183.16 1383.23 182.9C1383.23 182.9 1383.23 182.899 1383.23 182.899L1367.52 171.114Z" fill="#F2CB51" fill-opacity="0.65" stroke="#F2CB51" stroke-width="3"/>
<path opacity="0.9" d="M1375.91 93.5256L1375.91 93.5262L1391.62 105.312C1391.62 105.312 1391.62 105.312 1391.62 105.313C1392.04 105.625 1392.54 105.823 1393.06 105.885C1393.57 105.948 1394.1 105.874 1394.58 105.669C1394.58 105.669 1394.58 105.669 1394.58 105.669L1412.64 97.959L1375.91 93.5256ZM1375.91 93.5256C1375.49 93.2122 1375.17 92.7941 1374.96 92.3133C1374.75 91.8325 1374.68 91.306 1374.74 90.7869L1377.09 71.2885C1377.16 70.7707 1377.36 70.2788 1377.67 69.8621C1377.98 69.4451 1378.4 69.1179 1378.88 68.9135L1378.88 68.9131L1396.95 61.201L1396.95 61.1997C1397.43 60.9932 1397.96 60.9174 1398.47 60.9799C1398.99 61.0424 1399.48 61.241 1399.9 61.5555L1399.9 61.5575M1375.91 93.5256L1399.9 61.5575M1399.9 61.5575L1415.61 73.3436C1415.61 73.3439 1415.61 73.3442 1415.61 73.3445C1416.03 73.6583 1416.36 74.0757 1416.56 74.555C1416.77 75.0342 1416.84 75.5586 1416.78 76.076C1416.78 76.0766 1416.78 76.0771 1416.78 76.0777L1414.43 95.5752C1414.36 96.094 1414.17 96.5873 1413.85 97.0056C1413.54 97.4234 1413.12 97.7518 1412.65 97.9581L1399.9 61.5575Z" fill="#F2CB51" fill-opacity="0.9" stroke="#F2CB51" stroke-width="2"/>
<path opacity="0.9" d="M1215.36 90.9762L1213.01 110.476C1212.92 111.169 1213.02 111.873 1213.3 112.515C1213.57 113.157 1214.01 113.716 1214.57 114.135L1230.28 125.922C1230.84 126.34 1231.5 126.603 1232.19 126.687C1232.89 126.77 1233.59 126.671 1234.23 126.398L1252.3 118.686C1252.94 118.411 1253.49 117.972 1253.91 117.413C1254.33 116.855 1254.59 116.196 1254.68 115.504L1257.03 96.0041C1257.11 95.3125 1257.01 94.6115 1256.74 93.971C1256.47 93.3305 1256.03 92.7728 1255.47 92.3536L1239.76 80.5662C1239.2 80.1452 1238.54 79.8793 1237.85 79.7957C1237.16 79.712 1236.46 79.8135 1235.81 80.0899L1217.75 87.802C1217.11 88.0751 1216.55 88.5121 1216.13 89.0693C1215.71 89.6264 1215.44 90.2841 1215.36 90.9762V90.9762Z" fill="#F2CB51"/>
<path opacity="0.9" d="M1196.4 49.1549L1194.05 68.6544C1193.97 69.348 1194.07 70.0515 1194.34 70.6938C1194.62 71.3362 1195.06 71.8948 1195.62 72.3135L1211.33 84.1009C1211.89 84.5183 1212.55 84.782 1213.24 84.8655C1213.93 84.9491 1214.63 84.8497 1215.28 84.5772L1233.34 76.8651C1233.98 76.5897 1234.54 76.1507 1234.96 75.5922C1235.38 75.0336 1235.64 74.375 1235.72 73.6823L1238.08 54.1828C1238.16 53.4912 1238.06 52.7902 1237.78 52.1497C1237.51 51.5092 1237.07 50.9515 1236.52 50.5323L1220.81 38.7449C1220.25 38.3239 1219.59 38.058 1218.9 37.9744C1218.2 37.8907 1217.5 37.9922 1216.86 38.2686L1198.79 45.9807C1198.15 46.2538 1197.59 46.6909 1197.17 47.248C1196.75 47.8051 1196.49 48.4628 1196.4 49.1549V49.1549Z" fill="#F2CB51"/>
<path opacity="0.9" d="M1260.18 118.328L1260.17 118.327C1259.83 118.067 1259.55 117.719 1259.38 117.319C1259.21 116.919 1259.15 116.481 1259.2 116.049C1259.2 116.049 1259.2 116.049 1259.2 116.049L1261.55 96.5511C1261.6 96.1205 1261.77 95.7115 1262.03 95.3649C1262.29 95.018 1262.64 94.7458 1263.04 94.5757L1263.04 94.5751L1281.11 86.863L1281.11 86.861C1281.51 86.6895 1281.94 86.6265 1282.37 86.6784C1282.81 86.7303 1283.21 86.8953 1283.56 87.1565L1283.56 87.1596L1299.27 98.945C1299.27 98.9453 1299.27 98.9455 1299.27 98.9458C1299.62 99.207 1299.89 99.5544 1300.06 99.9534C1300.23 100.352 1300.3 100.789 1300.24 101.219C1300.24 101.22 1300.24 101.22 1300.24 101.221L1297.89 120.717C1297.89 120.717 1297.89 120.717 1297.89 120.717C1297.84 121.149 1297.68 121.56 1297.41 121.908C1297.15 122.256 1296.81 122.529 1296.41 122.701C1296.41 122.701 1296.41 122.701 1296.41 122.702L1278.35 130.411C1278.35 130.411 1278.35 130.411 1278.35 130.412C1277.95 130.581 1277.51 130.643 1277.08 130.591C1276.64 130.539 1276.23 130.375 1275.89 130.115C1275.89 130.114 1275.88 130.114 1275.88 130.114L1260.18 118.328Z" fill="#F2CB51" fill-opacity="0.7" stroke="#F2CB51" stroke-width="3"/>
<path opacity="0.9" d="M1151.12 65.9456L1151.12 65.9446C1150.77 65.6839 1150.49 65.3361 1150.32 64.9361C1150.15 64.5361 1150.09 64.0981 1150.14 63.6662C1150.14 63.6661 1150.14 63.6661 1150.14 63.6661L1152.49 44.1683C1152.55 43.7377 1152.71 43.3287 1152.97 42.9821C1153.23 42.6352 1153.58 42.363 1153.98 42.1929L1153.98 42.1923L1172.05 34.4802L1172.05 34.4782C1172.45 34.3067 1172.89 34.2437 1173.32 34.2956C1173.75 34.3475 1174.16 34.5125 1174.5 34.7737L1174.51 34.7768L1190.22 46.5622C1190.22 46.5625 1190.22 46.5627 1190.22 46.563C1190.56 46.8242 1190.83 47.1716 1191 47.5706C1191.18 47.9694 1191.24 48.4058 1191.19 48.8365C1191.19 48.837 1191.19 48.8376 1191.19 48.8381L1188.83 68.3346C1188.83 68.3346 1188.83 68.3347 1188.83 68.3347C1188.78 68.7665 1188.62 69.1771 1188.36 69.5253C1188.1 69.8731 1187.75 70.1464 1187.35 70.3182C1187.35 70.3184 1187.35 70.3187 1187.35 70.3189L1169.29 78.0284C1169.29 78.0285 1169.29 78.0286 1169.29 78.0287C1168.89 78.1985 1168.45 78.2605 1168.02 78.2084C1167.59 78.1562 1167.18 77.992 1166.83 77.7319C1166.83 77.7316 1166.83 77.7314 1166.83 77.7311L1151.12 65.9456Z" fill="#F2CB51" fill-opacity="0.46" stroke="#F2CB51" stroke-width="3"/>
<path opacity="0.9" d="M1169.18 107.328L1169.18 107.327C1168.83 107.067 1168.56 106.719 1168.39 106.319C1168.22 105.919 1168.16 105.481 1168.21 105.049C1168.21 105.049 1168.21 105.049 1168.21 105.049L1170.56 85.5511C1170.61 85.1205 1170.78 84.7115 1171.04 84.3649C1171.3 84.018 1171.65 83.7458 1172.05 83.5757L1172.05 83.5751L1190.11 75.863L1190.12 75.861C1190.52 75.6895 1190.95 75.6265 1191.38 75.6784C1191.81 75.7303 1192.22 75.8953 1192.57 76.1565L1192.57 76.1596L1208.28 87.945C1208.28 87.9453 1208.28 87.9455 1208.28 87.9458C1208.63 88.207 1208.9 88.5544 1209.07 88.9534C1209.24 89.3522 1209.3 89.7886 1209.25 90.2193C1209.25 90.2198 1209.25 90.2204 1209.25 90.2209L1206.9 109.717C1206.9 109.717 1206.9 109.717 1206.9 109.717C1206.85 110.149 1206.68 110.56 1206.42 110.908C1206.16 111.256 1205.82 111.529 1205.42 111.701C1205.42 111.701 1205.42 111.701 1205.42 111.702L1187.36 119.411C1187.36 119.411 1187.36 119.411 1187.36 119.412C1186.96 119.581 1186.52 119.643 1186.09 119.591C1185.65 119.539 1185.24 119.375 1184.89 119.115C1184.89 119.114 1184.89 119.114 1184.89 119.114L1169.18 107.328Z" fill="#F2CB51" fill-opacity="0.7" stroke="#F2CB51" stroke-width="3"/>
<path opacity="0.9" d="M1304.88 123.722L1304.88 123.721C1304.53 123.46 1304.25 123.112 1304.08 122.712C1303.91 122.312 1303.85 121.874 1303.9 121.443C1303.9 121.442 1303.9 121.442 1303.9 121.442L1306.25 101.945C1306.31 101.514 1306.47 101.105 1306.73 100.758C1307 100.412 1307.34 100.139 1307.74 99.9693L1307.74 99.9687L1325.81 92.2566L1325.81 92.2546C1326.21 92.0831 1326.65 92.0201 1327.08 92.072C1327.51 92.1239 1327.92 92.2888 1328.26 92.5501L1328.27 92.5532L1343.98 104.339C1343.98 104.339 1343.98 104.339 1343.98 104.339C1344.32 104.601 1344.6 104.948 1344.77 105.347C1344.94 105.746 1345 106.182 1344.95 106.613C1344.95 106.613 1344.95 106.614 1344.95 106.614L1342.6 126.111C1342.6 126.111 1342.6 126.111 1342.6 126.111C1342.54 126.543 1342.38 126.953 1342.12 127.302C1341.86 127.649 1341.51 127.923 1341.11 128.095C1341.11 128.095 1341.11 128.095 1341.11 128.095L1323.05 135.805C1323.05 135.805 1323.05 135.805 1323.05 135.805C1322.65 135.975 1322.21 136.037 1321.78 135.985C1321.35 135.933 1320.94 135.768 1320.59 135.508C1320.59 135.508 1320.59 135.508 1320.59 135.507L1304.88 123.722Z" fill="#F2CB51" fill-opacity="0.6" stroke="#F2CB51" stroke-width="3"/>
<path opacity="0.9" d="M1349.58 129.116L1349.58 129.115C1349.23 128.854 1348.96 128.506 1348.79 128.106C1348.61 127.706 1348.55 127.268 1348.6 126.836C1348.6 126.836 1348.6 126.836 1348.6 126.836L1350.96 107.338C1351.01 106.908 1351.17 106.499 1351.44 106.152C1351.7 105.805 1352.04 105.533 1352.44 105.363L1352.45 105.362L1370.51 97.6501L1370.51 97.6481C1370.91 97.4766 1371.35 97.4136 1371.78 97.4655C1372.21 97.5174 1372.62 97.6824 1372.96 97.9437L1372.97 97.9467L1388.68 109.732C1388.68 109.732 1388.68 109.733 1388.68 109.733C1389.02 109.994 1389.3 110.342 1389.47 110.74C1389.64 111.139 1389.7 111.576 1389.65 112.006C1389.65 112.007 1389.65 112.007 1389.65 112.008L1387.3 131.505C1387.3 131.505 1387.3 131.505 1387.3 131.505C1387.24 131.936 1387.08 132.347 1386.82 132.695C1386.56 133.043 1386.21 133.316 1385.81 133.488C1385.81 133.488 1385.81 133.489 1385.81 133.489L1367.75 141.198C1367.75 141.198 1367.75 141.199 1367.75 141.199C1367.35 141.368 1366.91 141.43 1366.48 141.378C1366.05 141.326 1365.64 141.162 1365.29 140.902C1365.29 140.902 1365.29 140.901 1365.29 140.901L1349.58 129.116Z" fill="#F2CB51" fill-opacity="0.89" stroke="#F2CB51" stroke-width="3"/>
<path opacity="0.9" d="M1322.08 143.054L1319.72 162.554C1319.64 163.247 1319.74 163.951 1320.02 164.593C1320.29 165.236 1320.73 165.794 1321.29 166.213L1337 178C1337.56 178.418 1338.22 178.681 1338.91 178.765C1339.6 178.849 1340.31 178.749 1340.95 178.477L1359.01 170.765C1359.65 170.489 1360.21 170.05 1360.63 169.492C1361.05 168.933 1361.31 168.274 1361.39 167.582L1363.75 148.082C1363.83 147.391 1363.73 146.69 1363.46 146.049C1363.18 145.409 1362.75 144.851 1362.19 144.432L1346.48 132.644C1345.92 132.223 1345.26 131.957 1344.57 131.874C1343.87 131.79 1343.17 131.892 1342.53 132.168L1324.47 139.88C1323.82 140.153 1323.27 140.59 1322.85 141.147C1322.43 141.705 1322.16 142.362 1322.08 143.054V143.054Z" fill="#F2CB51"/>
<path opacity="0.9" d="M1403.49 35.2692L1401.14 54.7687C1401.06 55.4623 1401.16 56.1657 1401.43 56.8081C1401.71 57.4504 1402.15 58.0091 1402.7 58.4277L1418.42 70.2152C1418.98 70.6326 1419.63 70.8962 1420.33 70.9798C1421.02 71.0633 1421.72 70.9639 1422.36 70.6914L1440.43 62.9794C1441.07 62.704 1441.63 62.265 1442.05 61.7064C1442.46 61.1479 1442.73 60.4893 1442.81 59.7966L1445.16 40.2971C1445.25 39.6055 1445.15 38.9045 1444.87 38.264C1444.6 37.6235 1444.16 37.0658 1443.61 36.6466L1427.89 24.8592C1427.34 24.4381 1426.68 24.1723 1425.98 24.0886C1425.29 24.005 1424.59 24.1065 1423.95 24.3829L1405.88 32.095C1405.24 32.3681 1404.68 32.8051 1404.26 33.3623C1403.84 33.9194 1403.58 34.577 1403.49 35.2692V35.2692Z" fill="#F2CB51"/>
<path opacity="0.9" d="M1448.31 62.6224L1448.31 62.6214C1447.96 62.3607 1447.68 62.0128 1447.51 61.6128C1447.34 61.2128 1447.28 60.7748 1447.33 60.3429C1447.33 60.3429 1447.33 60.3429 1447.33 60.3428L1449.68 40.845C1449.74 40.4145 1449.9 40.0054 1450.16 39.6589C1450.43 39.3119 1450.77 39.0397 1451.17 38.8697L1451.17 38.869L1469.24 31.157L1469.24 31.155C1469.64 30.9835 1470.08 30.9204 1470.51 30.9724C1470.94 31.0243 1471.35 31.1892 1471.69 31.4505L1471.7 31.4536L1487.41 43.239C1487.41 43.2392 1487.41 43.2395 1487.41 43.2397C1487.75 43.501 1488.03 43.8484 1488.2 44.2473C1488.37 44.6461 1488.43 45.0826 1488.38 45.5132C1488.38 45.5138 1488.38 45.5143 1488.38 45.5149L1486.03 65.0114C1486.03 65.0114 1486.03 65.0114 1486.03 65.0114C1485.97 65.4433 1485.81 65.8539 1485.55 66.2021C1485.29 66.5498 1484.94 66.8232 1484.54 66.9949C1484.54 66.9952 1484.54 66.9954 1484.54 66.9957L1466.48 74.7051C1466.48 74.7052 1466.48 74.7054 1466.48 74.7055C1466.08 74.8753 1465.64 74.9372 1465.21 74.8851C1464.78 74.833 1464.37 74.6687 1464.02 74.4086C1464.02 74.4084 1464.02 74.4081 1464.02 74.4079L1448.31 62.6224Z" fill="#F2CB51" stroke="#F2CB51" stroke-width="3"/>
<path opacity="0.9" d="M1420.73 98.7598L1420.73 98.759C1420.34 98.4667 1420.04 98.0767 1419.84 97.6282C1419.65 97.1798 1419.58 96.6887 1419.64 96.2044L1421.99 76.7062C1422.05 76.2233 1422.24 75.7646 1422.53 75.3759C1422.82 74.9869 1423.21 74.6818 1423.66 74.4911L1423.66 74.4906L1441.73 66.7785L1441.73 66.7769C1442.18 66.5844 1442.67 66.5137 1443.15 66.572C1443.63 66.6302 1444.09 66.8154 1444.48 67.1086L1444.48 67.111L1460.19 78.8969C1460.19 78.8971 1460.19 78.8973 1460.19 78.8976C1460.58 79.1904 1460.89 79.5798 1461.08 80.027C1461.27 80.4741 1461.34 80.9633 1461.28 81.446C1461.28 81.4466 1461.28 81.4471 1461.28 81.4477L1458.93 100.945C1458.87 101.429 1458.69 101.889 1458.39 102.279C1458.1 102.669 1457.71 102.976 1457.26 103.168C1457.26 103.168 1457.26 103.169 1457.26 103.169L1439.2 110.879C1439.2 110.879 1439.2 110.879 1439.2 110.88C1438.75 111.07 1438.26 111.139 1437.78 111.08C1437.3 111.022 1436.84 110.838 1436.44 110.547C1436.44 110.547 1436.44 110.546 1436.44 110.546L1420.73 98.7598Z" fill="#F2CB51" fill-opacity="0.46" stroke="#F2CB51" stroke-width="2.4"/>
<path opacity="0.9" d="M1465.5 81.9537L1463.15 101.453C1463.07 102.147 1463.17 102.85 1463.44 103.493C1463.72 104.135 1464.16 104.694 1464.72 105.112L1480.43 116.9C1480.99 117.317 1481.65 117.581 1482.34 117.664C1483.03 117.748 1483.73 117.648 1484.38 117.376L1502.44 109.664C1503.08 109.389 1503.64 108.95 1504.06 108.391C1504.48 107.832 1504.74 107.174 1504.82 106.481L1507.18 86.9816C1507.26 86.2901 1507.16 85.5891 1506.88 84.9485C1506.61 84.308 1506.17 83.7504 1505.62 83.3312L1489.91 71.5437C1489.35 71.1227 1488.69 70.8569 1488 70.7732C1487.3 70.6895 1486.6 70.7911 1485.96 71.0675L1467.89 78.7795C1467.25 79.0526 1466.69 79.4897 1466.27 80.0468C1465.85 80.604 1465.59 81.2616 1465.5 81.9537V81.9537Z" fill="#F2CB51"/>
<path opacity="0.9" d="M1394.17 112.55L1391.81 132.05C1391.73 132.744 1391.83 133.447 1392.11 134.089C1392.38 134.732 1392.82 135.29 1393.38 135.709L1409.09 147.496C1409.65 147.914 1410.31 148.177 1411 148.261C1411.69 148.345 1412.4 148.245 1413.04 147.973L1431.1 140.261C1431.74 139.985 1432.3 139.546 1432.72 138.988C1433.14 138.429 1433.4 137.771 1433.48 137.078L1435.84 117.578C1435.92 116.887 1435.82 116.186 1435.55 115.545C1435.27 114.905 1434.84 114.347 1434.28 113.928L1418.57 102.14C1418.01 101.719 1417.35 101.454 1416.66 101.37C1415.96 101.286 1415.26 101.388 1414.62 101.664L1396.56 109.376C1395.91 109.649 1395.36 110.086 1394.94 110.644C1394.52 111.201 1394.25 111.858 1394.17 112.55V112.55Z" fill="#F2CB51"/>
<path opacity="0.9" d="M1438.98 139.904L1438.98 139.903C1438.63 139.642 1438.36 139.294 1438.19 138.894C1438.02 138.494 1437.96 138.056 1438.01 137.624C1438.01 137.624 1438.01 137.624 1438.01 137.624L1440.36 118.126C1440.41 117.696 1440.58 117.287 1440.84 116.94C1441.1 116.593 1441.45 116.321 1441.85 116.151L1441.85 116.15L1459.91 108.438L1459.92 108.436C1460.32 108.265 1460.75 108.202 1461.18 108.254C1461.61 108.306 1462.02 108.47 1462.37 108.732L1462.37 108.735L1478.08 120.52C1478.08 120.52 1478.08 120.521 1478.08 120.521C1478.43 120.782 1478.7 121.13 1478.87 121.529C1479.04 121.927 1479.1 122.364 1479.05 122.794C1479.05 122.795 1479.05 122.796 1479.05 122.796L1476.7 142.293C1476.7 142.293 1476.7 142.293 1476.7 142.293C1476.65 142.725 1476.48 143.135 1476.22 143.483C1475.96 143.831 1475.62 144.104 1475.22 144.276C1475.22 144.276 1475.22 144.277 1475.22 144.277L1457.16 151.986C1457.16 151.986 1457.16 151.987 1457.16 151.987C1456.76 152.157 1456.32 152.218 1455.89 152.166C1455.45 152.114 1455.04 151.95 1454.69 151.69C1454.69 151.69 1454.69 151.689 1454.69 151.689L1438.98 139.904Z" fill="#F2CB51" fill-opacity="0.65" stroke="#F2CB51" stroke-width="3"/>
<path opacity="0.9" d="M1456.29 181.195L1456.29 181.194C1455.94 180.933 1455.67 180.585 1455.5 180.185C1455.33 179.785 1455.26 179.347 1455.32 178.915C1455.32 178.915 1455.32 178.915 1455.32 178.915L1457.67 159.417C1457.72 158.987 1457.89 158.578 1458.15 158.231C1458.41 157.884 1458.76 157.612 1459.16 157.442L1459.16 157.441L1477.22 149.729L1477.23 149.727C1477.63 149.556 1478.06 149.493 1478.49 149.545C1478.92 149.597 1479.33 149.762 1479.68 150.023L1479.68 150.026L1495.39 161.811C1495.39 161.811 1495.39 161.812 1495.39 161.812C1495.74 162.073 1496.01 162.421 1496.18 162.82C1496.35 163.218 1496.41 163.655 1496.36 164.085C1496.36 164.086 1496.36 164.087 1496.36 164.087L1494.01 183.584C1494.01 183.584 1494.01 183.584 1494.01 183.584C1493.96 184.016 1493.79 184.426 1493.53 184.774C1493.27 185.122 1492.92 185.395 1492.53 185.567C1492.53 185.567 1492.52 185.568 1492.52 185.568L1474.47 193.277C1474.47 193.278 1474.46 193.278 1474.46 193.278C1474.06 193.448 1473.63 193.509 1473.19 193.457C1472.76 193.405 1472.35 193.241 1472 192.981C1472 192.981 1472 192.98 1472 192.98L1456.29 181.195Z" fill="#F2CB51" fill-opacity="0.7" stroke="#F2CB51" stroke-width="3"/>
<path opacity="0.9" d="M1426.65 84.2271C1427.14 81.8647 1429.29 78.5938 1434.12 76.8131" stroke="white" stroke-width="3" stroke-linecap="round"/>
<path opacity="0.9" d="M1409.9 87.2741C1409.04 90.1241 1406.17 93.8465 1400.34 95.3127" stroke="white" stroke-width="3" stroke-linecap="round"/>
<path opacity="0.9" d="M1470.54 88.1027C1471.28 85.3343 1473.65 81.8583 1478.27 80.861" stroke="white" stroke-width="3" stroke-linecap="round"/>
</g>
<path opacity="0.9" d="M30.9127 578.209L45.6221 565.193C46.1453 564.73 46.5372 564.137 46.7585 563.475C46.9797 562.812 47.0225 562.103 46.8824 561.418L42.9645 542.171C42.8238 541.488 42.5065 540.853 42.0443 540.331C41.582 539.808 40.9908 539.416 40.3298 539.193L21.7025 532.962C21.0403 532.742 20.332 532.7 19.6485 532.839C18.9649 532.979 18.3301 533.296 17.8075 533.759L3.09819 546.774C2.57755 547.237 2.18725 547.828 1.96623 548.488C1.74521 549.148 1.70119 549.855 1.83856 550.538L5.75648 569.785C5.89346 570.47 6.20941 571.106 6.67221 571.63C7.13501 572.153 7.72812 572.544 8.39117 572.763L27.0184 578.995C27.6795 579.217 28.3873 579.261 29.0708 579.123C29.7544 578.985 30.3896 578.67 30.9127 578.209V578.209Z" fill="#F2CB51"/>
<path opacity="0.9" d="M59.8947 519.35L59.895 519.352C59.9823 519.778 59.9556 520.22 59.8179 520.633C59.6801 521.045 59.436 521.414 59.1102 521.703C59.1102 521.703 59.1102 521.703 59.1102 521.703L44.4021 534.717C44.0765 535.004 43.6814 535.2 43.2561 535.285C42.8305 535.371 42.3897 535.344 41.9781 535.206L41.9765 535.205L23.3493 528.973L23.3444 528.972C22.933 528.836 22.5649 528.593 22.2778 528.268C21.9906 527.944 21.7945 527.549 21.7095 527.124L21.7085 527.119L17.7913 507.875C17.7912 507.875 17.7911 507.874 17.791 507.874C17.7057 507.448 17.7332 507.008 17.8709 506.597C18.0085 506.186 18.2514 505.818 18.5754 505.529C18.5758 505.529 18.5762 505.529 18.5766 505.528L33.2837 492.515C33.2837 492.515 33.2837 492.515 33.2837 492.515C33.6095 492.227 34.0053 492.029 34.4314 491.942C34.857 491.855 35.2979 491.881 35.7102 492.017C35.7108 492.018 35.7114 492.018 35.712 492.018L54.3329 498.248C54.3332 498.248 54.3335 498.248 54.3338 498.248C54.7461 498.387 55.1147 498.632 55.4031 498.958C55.6913 499.283 55.8892 499.679 55.9772 500.105C55.9773 500.105 55.9773 500.106 55.9774 500.106L59.8947 519.35Z" fill="#F2CB51" fill-opacity="0.46" stroke="#F2CB51" stroke-width="3"/>
<path opacity="0.9" d="M89.2106 526.627L103.92 513.611C104.443 513.148 104.835 512.555 105.056 511.893C105.278 511.23 105.32 510.521 105.18 509.836L101.262 490.589C101.122 489.906 100.804 489.271 100.342 488.749C99.8798 488.226 99.2887 487.834 98.6276 487.611L80.0004 481.379C79.3382 481.16 78.6299 481.118 77.9463 481.257C77.2628 481.397 76.6279 481.714 76.1054 482.177L61.396 495.192C60.8754 495.655 60.4851 496.246 60.2641 496.906C60.0431 497.566 59.999 498.273 60.1364 498.956L64.0543 518.203C64.1913 518.888 64.5073 519.524 64.9701 520.047C65.4329 520.571 66.026 520.962 66.689 521.181L85.3163 527.413C85.9773 527.635 86.6852 527.679 87.3687 527.541C88.0522 527.403 88.6874 527.088 89.2106 526.627V526.627Z" fill="#F2CB51"/>
<path opacity="0.9" d="M46.1452 233.492L60.8545 220.476C61.3777 220.013 61.7697 219.421 61.9909 218.758C62.2122 218.095 62.2549 217.386 62.1148 216.702L58.1969 197.454C58.0562 196.771 57.739 196.136 57.2767 195.614C56.8144 195.092 56.2233 194.699 55.5622 194.477L36.9349 188.245C36.2727 188.025 35.5644 187.983 34.8809 188.123C34.1973 188.263 33.5625 188.58 33.04 189.042L18.3306 202.057C17.81 202.52 17.4197 203.111 17.1987 203.771C16.9776 204.432 16.9336 205.138 17.071 205.821L20.9889 225.069C21.1259 225.753 21.4418 226.39 21.9046 226.913C22.3674 227.436 22.9605 227.827 23.6236 228.046L42.2508 234.278C42.9119 234.5 43.6197 234.544 44.3033 234.406C44.9868 234.268 45.622 233.953 46.1452 233.492Z" fill="#F2CB51"/>
<path opacity="0.9" d="M75.6063 570.481L90.3157 557.466C90.8389 557.003 91.2308 556.41 91.4521 555.747C91.6733 555.085 91.7161 554.375 91.576 553.691L87.6581 534.443C87.5174 533.76 87.2001 533.126 86.7379 532.603C86.2756 532.081 85.6844 531.689 85.0234 531.466L66.3961 525.234C65.7339 525.014 65.0256 524.972 64.3421 525.112C63.6585 525.252 63.0237 525.569 62.5011 526.031L47.7918 539.047C47.2712 539.509 46.8809 540.1 46.6598 540.76C46.4388 541.421 46.3948 542.128 46.5322 542.81L50.4501 562.058C50.5871 562.743 50.903 563.379 51.3658 563.902C51.8286 564.425 52.4217 564.816 53.0848 565.035L71.712 571.267C72.3731 571.489 73.0809 571.533 73.7644 571.395C74.448 571.257 75.0832 570.942 75.6063 570.481V570.481Z" fill="#F2CB51"/>
<path opacity="0.9" d="M73.872 476.414L73.8723 476.415C73.9595 476.842 73.9329 477.283 73.7952 477.696C73.6574 478.109 73.4133 478.478 73.0875 478.766C73.0875 478.766 73.0875 478.766 73.0875 478.766L58.3794 491.78C58.0538 492.067 57.6586 492.263 57.2334 492.349C56.8078 492.435 56.367 492.407 55.9553 492.269L55.9538 492.269L37.3266 486.037L37.3217 486.035C36.9103 485.899 36.5422 485.656 36.2551 485.332C35.9679 485.007 35.7718 484.612 35.6868 484.187L35.6858 484.182L31.7686 464.938C31.7685 464.938 31.7684 464.938 31.7683 464.937C31.683 464.512 31.7105 464.072 31.8482 463.66C31.9858 463.249 32.2287 462.881 32.5527 462.593C32.5531 462.593 32.5535 462.592 32.5539 462.592L47.261 449.578C47.261 449.578 47.261 449.578 47.261 449.578C47.5868 449.29 47.9825 449.092 48.4087 449.005C48.8343 448.918 49.2752 448.944 49.6875 449.081C49.6881 449.081 49.6887 449.081 49.6893 449.081L68.3102 455.311C68.3105 455.311 68.3108 455.311 68.3111 455.311C68.7234 455.451 69.092 455.695 69.3804 456.021C69.6686 456.347 69.8665 456.742 69.9545 457.168C69.9546 457.169 69.9546 457.169 69.9547 457.17L73.872 476.414Z" fill="#F2CB51" fill-opacity="0.7" stroke="#F2CB51" stroke-width="3"/>
<path opacity="0.9" d="M47.6449 266.002L47.6453 266.003C47.7325 266.43 47.7059 266.871 47.5681 267.284C47.4303 267.697 47.1863 268.066 46.8605 268.354C46.8605 268.354 46.8605 268.354 46.8604 268.354L32.1524 281.368C31.8268 281.655 31.4316 281.851 31.0064 281.937C30.5807 282.023 30.14 281.995 29.7283 281.857L29.7268 281.857L11.0995 275.625L11.0947 275.623C10.6832 275.487 10.3152 275.244 10.028 274.92C9.74083 274.595 9.54477 274.2 9.45978 273.775L9.45876 273.77L5.54151 254.526C5.54141 254.526 5.5413 254.525 5.5412 254.525C5.45594 254.1 5.48348 253.659 5.62111 253.248C5.75872 252.837 6.00161 252.469 6.3256 252.181C6.32601 252.18 6.32642 252.18 6.32684 252.18L21.0339 239.166C21.0339 239.166 21.0339 239.166 21.034 239.166C21.3597 238.878 21.7555 238.68 22.1816 238.593C22.6072 238.506 23.0482 238.532 23.4605 238.669C23.4611 238.669 23.4616 238.669 23.4622 238.669L42.0832 244.899C42.0838 244.899 42.0845 244.9 42.0852 244.9C42.497 245.039 42.8652 245.283 43.1533 245.609C43.4414 245.935 43.6392 246.33 43.7272 246.756C43.7274 246.756 43.7275 246.757 43.7277 246.758L47.6449 266.002Z" fill="#F2CB51" fill-opacity="0.7" stroke="#F2CB51" stroke-width="3"/>
<path opacity="0.9" d="M44.0341 442.692L44.0344 442.694C44.1217 443.12 44.095 443.562 43.9573 443.974C43.8195 444.387 43.5754 444.756 43.2497 445.044C43.2496 445.044 43.2496 445.044 43.2496 445.044L28.5415 458.059C28.2159 458.345 27.8208 458.541 27.3955 458.627C26.9699 458.713 26.5291 458.686 26.1175 458.547L26.1159 458.547L7.48867 452.315L7.48381 452.313C7.07238 452.177 6.70433 451.935 6.41716 451.61C6.12999 451.286 5.93393 450.891 5.84894 450.466L5.84792 450.461L1.93067 431.217C1.93059 431.216 1.93051 431.216 1.93042 431.215C1.84508 430.79 1.87261 430.35 2.01027 429.939C2.14788 429.527 2.39077 429.159 2.71476 428.871C2.71517 428.871 2.71558 428.87 2.716 428.87L17.4231 415.857C17.4231 415.857 17.4231 415.857 17.4231 415.857C17.7489 415.568 18.1447 415.371 18.5708 415.284C18.9964 415.196 19.4373 415.223 19.8496 415.359C19.8502 415.359 19.8508 415.36 19.8514 415.36L38.4723 421.59C38.4726 421.59 38.4729 421.59 38.4732 421.59C38.8855 421.729 39.2541 421.974 39.5425 422.299C39.8307 422.625 40.0287 423.021 40.1166 423.447C40.1167 423.447 40.1167 423.448 40.1168 423.448L44.0341 442.692Z" fill="#F2CB51" fill-opacity="0.6" stroke="#F2CB51" stroke-width="3"/>
<path opacity="0.9" d="M44.0158 416.817L58.7251 403.802C59.2483 403.339 59.6403 402.746 59.8615 402.083C60.0828 401.42 60.1255 400.711 59.9854 400.027L56.0675 380.779C55.9268 380.096 55.6096 379.462 55.1473 378.939C54.685 378.417 54.0939 378.025 53.4328 377.802L34.8055 371.57C34.1434 371.35 33.4351 371.308 32.7515 371.448C32.0679 371.588 31.4331 371.905 30.9106 372.367L16.2012 385.383C15.6806 385.845 15.2903 386.436 15.0693 387.096C14.8482 387.757 14.8042 388.464 14.9416 389.146L18.8595 408.394C18.9965 409.079 19.3124 409.715 19.7752 410.238C20.238 410.761 20.8311 411.152 21.4942 411.371L40.1215 417.603C40.7825 417.825 41.4903 417.869 42.1739 417.731C42.8574 417.593 43.4926 417.278 44.0158 416.817V416.817Z" fill="#F2CB51"/>
<path opacity="0.9" d="M44.9997 458.758C47.0422 456.787 50.7022 455.027 54.7815 456.496" stroke="white" stroke-width="3" stroke-linecap="round"/>
<path opacity="0.9" d="M91.4828 518.007C89.4055 519.983 85.5779 521.721 81.1082 520.164" stroke="white" stroke-width="3" stroke-linecap="round"/>
</svg>
