<svg width="362" height="204" viewBox="0 0 362 204" fill="none" xmlns="http://www.w3.org/2000/svg">
<g opacity="0.7">
<path opacity="0.9" d="M77.6859 13.695L75.3331 33.1945C75.2495 33.8881 75.3501 34.5915 75.6248 35.2339C75.8995 35.8762 76.3386 36.4348 76.8979 36.8535L92.6099 48.6409C93.1688 49.0584 93.8274 49.322 94.52 49.4056C95.2126 49.4891 95.915 49.3897 96.5571 49.1172L114.622 41.4051C115.263 41.1297 115.82 40.6908 116.239 40.1322C116.657 39.5737 116.921 38.9151 117.004 38.2224L119.357 18.7228C119.439 18.0313 119.339 17.3303 119.065 16.6898C118.792 16.0492 118.355 15.4916 117.799 15.0724L102.087 3.28494C101.53 2.86393 100.871 2.59806 100.178 2.51441C99.4843 2.43075 98.7812 2.53229 98.1398 2.80868L80.0751 10.5207C79.4335 10.7938 78.8749 11.2309 78.4556 11.788C78.0362 12.3452 77.7708 13.0028 77.6859 13.695Z" fill="#F2CB51"/>
<path opacity="0.9" d="M122.387 19.0895L120.034 38.589C119.951 39.2826 120.051 39.986 120.326 40.6284C120.601 41.2707 121.04 41.8294 121.599 42.248L137.311 54.0355C137.87 54.4529 138.529 54.7165 139.221 54.8001C139.914 54.8837 140.616 54.7842 141.258 54.5117L159.323 46.7997C159.964 46.5243 160.522 46.0853 160.94 45.5268C161.358 44.9682 161.622 44.3096 161.706 43.6169L164.058 24.1174C164.14 23.4258 164.04 22.7248 163.766 22.0843C163.493 21.4438 163.056 20.8861 162.5 20.4669L146.788 8.67947C146.231 8.25846 145.572 7.9926 144.879 7.90894C144.186 7.82528 143.482 7.92682 142.841 8.20321L124.776 15.9153C124.135 16.1884 123.576 16.6254 123.157 17.1826C122.737 17.7397 122.472 18.3973 122.387 19.0895Z" fill="#F2CB51"/>
<path opacity="0.9" d="M167.052 46.6407L167.051 46.6399C166.668 46.3529 166.367 45.9699 166.178 45.5295C165.99 45.0891 165.921 44.6068 165.978 44.1313L168.331 24.6331C168.389 24.159 168.571 23.7085 168.858 23.3269C169.146 22.9449 169.529 22.6452 169.969 22.458L169.97 22.4575L188.035 14.7454L188.039 14.7437C188.477 14.5547 188.958 14.4853 189.432 14.5425C189.906 14.5997 190.357 14.7815 190.738 15.0694L190.741 15.0719L206.451 26.8577C206.451 26.8579 206.451 26.8582 206.452 26.8584C206.833 27.146 207.132 27.5284 207.32 27.9675C207.507 28.4066 207.576 28.887 207.52 29.361C207.52 29.3616 207.52 29.3621 207.52 29.3627L205.168 48.8597C205.11 49.335 204.929 49.787 204.642 50.1702C204.355 50.5534 203.973 50.8545 203.533 51.0435C203.533 51.0436 203.533 51.0437 203.533 51.0437L185.473 58.7536C185.473 58.7538 185.472 58.7539 185.472 58.754C185.031 58.9409 184.549 59.009 184.074 58.9517C183.599 58.8943 183.147 58.7135 182.763 58.4272C182.763 58.427 182.762 58.4267 182.762 58.4265L167.052 46.6407Z" fill="#F2CB51" fill-opacity="0.8" stroke="#F2CB51" stroke-width="2.5"/>
<path opacity="0.9" d="M211.603 52.2342L211.602 52.2336C211.184 51.9202 210.855 51.5021 210.65 51.0213C210.444 50.5405 210.369 50.014 210.431 49.4949L212.784 29.9965C212.848 29.4787 213.046 28.9868 213.36 28.5701C213.674 28.1531 214.092 27.8259 214.572 27.6215L214.573 27.6211L232.638 19.909L232.641 19.9077C233.12 19.7012 233.645 19.6254 234.163 19.6879C234.681 19.7504 235.173 19.949 235.59 20.2635L235.592 20.2655L251.303 32.0516C251.303 32.0517 251.303 32.0518 251.303 32.0518C251.719 32.3658 252.046 32.7834 252.251 33.263C252.455 33.7422 252.531 34.2666 252.47 34.784C252.47 34.7846 252.47 34.7851 252.469 34.7857L250.117 54.2832C250.054 54.802 249.857 55.2953 249.543 55.7136C249.231 56.1315 248.814 56.46 248.334 56.6663C248.334 56.6666 248.333 56.6668 248.333 56.667L230.272 64.3773C230.272 64.3775 230.271 64.3776 230.271 64.3777C229.79 64.5816 229.264 64.656 228.745 64.5934C228.226 64.5308 227.733 64.3335 227.314 64.021C227.314 64.0208 227.314 64.0206 227.314 64.0204L211.603 52.2342Z" fill="#F2CB51" fill-opacity="0.9" stroke="#F2CB51" stroke-width="2"/>
<path opacity="0.9" d="M95.1086 76.9456L95.1073 76.9446C94.759 76.6839 94.4855 76.3361 94.3145 75.9361C94.1434 75.5361 94.0808 75.0981 94.1329 74.6662C94.1329 74.6661 94.1329 74.6661 94.1329 74.6661L96.4854 55.1683C96.5385 54.7377 96.7037 54.3287 96.9646 53.9821C97.2257 53.6352 97.5735 53.363 97.9731 53.1929L97.9746 53.1923L116.039 45.4802L116.044 45.4782C116.442 45.3067 116.878 45.2437 117.309 45.2956C117.739 45.3475 118.148 45.5125 118.493 45.7737L118.497 45.7768L134.207 57.5622C134.207 57.5624 134.207 57.5626 134.207 57.5627C134.554 57.824 134.826 58.1715 134.996 58.5706C135.166 58.9694 135.229 59.4058 135.178 59.8365C135.178 59.837 135.178 59.8376 135.178 59.8381L132.826 79.3346C132.826 79.3346 132.826 79.3347 132.826 79.3347C132.774 79.7665 132.609 80.1771 132.348 80.5253C132.088 80.8731 131.741 81.1464 131.342 81.3182C131.342 81.3184 131.341 81.3187 131.34 81.3189L113.282 89.0284C113.281 89.0286 113.281 89.0289 113.28 89.0291C112.88 89.1986 112.442 89.2604 112.01 89.2084C111.579 89.1563 111.168 88.9921 110.82 88.7323C110.819 88.7319 110.818 88.7315 110.818 88.7311L95.1086 76.9456Z" fill="#F2CB51" fill-opacity="0.46" stroke="#F2CB51" stroke-width="3"/>
<path opacity="0.9" d="M139.696 60.3805L137.343 79.88C137.259 80.5736 137.36 81.277 137.634 81.9194C137.909 82.5618 138.348 83.1204 138.908 83.539L154.62 95.3265C155.178 95.7439 155.837 96.0075 156.53 96.0911C157.222 96.1747 157.925 96.0752 158.567 95.8028L176.632 88.0907C177.273 87.8153 177.83 87.3763 178.248 86.8178C178.666 86.2592 178.93 85.6006 179.014 84.9079L181.367 65.4084C181.449 64.7168 181.348 64.0158 181.075 63.3753C180.801 62.7348 180.365 62.1771 179.809 61.7579L164.097 49.9705C163.54 49.5495 162.881 49.2836 162.187 49.2C161.494 49.1163 160.791 49.2178 160.149 49.4942L142.085 57.2063C141.443 57.4794 140.885 57.9164 140.465 58.4736C140.046 59.0307 139.78 59.6884 139.696 60.3805Z" fill="#F2CB51"/>
<path opacity="0.9" d="M184.511 87.7327L184.51 87.7318C184.161 87.471 183.888 87.1232 183.717 86.7232C183.546 86.3232 183.483 85.8852 183.535 85.4533C183.535 85.4532 183.535 85.4532 183.535 85.4532L185.888 65.9554C185.941 65.5248 186.106 65.1158 186.367 64.7692C186.628 64.4223 186.976 64.1501 187.375 63.98L187.377 63.9794L205.442 56.2673L205.446 56.2653C205.844 56.0938 206.281 56.0308 206.711 56.0827C207.141 56.1346 207.55 56.2996 207.896 56.5608L207.9 56.5639L223.609 68.3493C223.609 68.3495 223.609 68.3497 223.61 68.3498C223.956 68.6111 224.228 68.9586 224.398 69.3577C224.569 69.7565 224.631 70.1929 224.581 70.6236C224.58 70.6241 224.58 70.6247 224.58 70.6252L222.228 90.1217C222.228 90.1217 222.228 90.1218 222.228 90.1218C222.176 90.5536 222.011 90.9642 221.751 91.3124C221.49 91.6602 221.143 91.9336 220.744 92.1053C220.744 92.1055 220.743 92.1058 220.743 92.106L202.684 99.8155C202.683 99.8157 202.683 99.816 202.682 99.8162C202.282 99.9858 201.844 100.048 201.412 99.9955C200.981 99.9434 200.57 99.7792 200.222 99.5194C200.221 99.519 200.221 99.5186 200.22 99.5182L184.511 87.7327Z" fill="#F2CB51" fill-opacity="0.65" stroke="#F2CB51" stroke-width="3"/>
<path opacity="0.9" d="M220.517 171.114L220.515 171.113C220.167 170.852 219.894 170.504 219.723 170.104C219.552 169.704 219.489 169.266 219.541 168.834C219.541 168.834 219.541 168.834 219.541 168.834L221.894 149.336C221.947 148.906 222.112 148.497 222.373 148.15C222.634 147.803 222.982 147.531 223.381 147.361L223.383 147.36L241.447 139.648L241.452 139.646C241.85 139.475 242.286 139.412 242.717 139.464C243.147 139.515 243.556 139.68 243.901 139.942L243.906 139.945L259.615 151.73C259.615 151.73 259.615 151.731 259.616 151.731C259.962 151.992 260.234 152.339 260.404 152.739C260.574 153.137 260.637 153.574 260.586 154.004C260.586 154.005 260.586 154.006 260.586 154.006L258.234 173.503C258.234 173.503 258.234 173.503 258.234 173.503C258.182 173.934 258.017 174.345 257.756 174.693C257.496 175.041 257.149 175.314 256.75 175.486C256.75 175.486 256.749 175.487 256.748 175.487L238.69 183.196C238.689 183.197 238.689 183.197 238.688 183.197C238.288 183.367 237.85 183.428 237.418 183.376C236.987 183.324 236.576 183.16 236.228 182.9C236.227 182.9 236.227 182.899 236.226 182.899L220.517 171.114Z" fill="#F2CB51" fill-opacity="0.65" stroke="#F2CB51" stroke-width="3"/>
<path opacity="0.9" d="M228.914 93.5262L228.913 93.5256C228.494 93.2122 228.166 92.7941 227.96 92.3133C227.755 91.8325 227.679 91.306 227.742 90.7869L230.094 71.2885C230.158 70.7707 230.357 70.2788 230.67 69.8621C230.984 69.4451 231.402 69.1179 231.883 68.9135L231.884 68.9131L249.948 61.201L249.951 61.1997C250.431 60.9932 250.956 60.9174 251.474 60.9799C251.992 61.0424 252.484 61.241 252.9 61.5555L252.903 61.5575L268.613 73.3436C268.613 73.3437 268.613 73.3437 268.613 73.3438C269.03 73.6578 269.357 74.0753 269.561 74.555C269.766 75.0342 269.841 75.5586 269.78 76.076C269.78 76.0766 269.78 76.0771 269.78 76.0777L267.427 95.5752C267.365 96.094 267.167 96.5873 266.854 97.0056C266.541 97.4235 266.124 97.752 265.645 97.9583C265.644 97.9586 265.644 97.9588 265.643 97.959L247.582 105.669C247.582 105.669 247.582 105.67 247.581 105.67C247.1 105.874 246.574 105.948 246.056 105.885C245.537 105.823 245.044 105.625 244.625 105.313C244.625 105.313 244.624 105.313 244.624 105.312L228.914 93.5262Z" fill="#F2CB51" fill-opacity="0.9" stroke="#F2CB51" stroke-width="2"/>
<path opacity="0.9" d="M68.3597 90.9762L66.007 110.476C65.9233 111.169 66.0239 111.873 66.2986 112.515C66.5733 113.157 67.0124 113.716 67.5717 114.135L83.2837 125.922C83.8427 126.34 84.5012 126.603 85.1938 126.687C85.8864 126.77 86.5888 126.671 87.231 126.398L105.296 118.686C105.937 118.411 106.494 117.972 106.912 117.413C107.331 116.855 107.595 116.196 107.678 115.504L110.031 96.0041C110.113 95.3125 110.012 94.6115 109.739 93.971C109.466 93.3305 109.029 92.7728 108.473 92.3536L92.7609 80.5662C92.2037 80.1452 91.5449 79.8793 90.8515 79.7957C90.1582 79.712 89.455 79.8135 88.8137 80.0899L70.7489 87.802C70.1073 88.0751 69.5488 88.5121 69.1294 89.0693C68.71 89.6264 68.4446 90.2841 68.3597 90.9762Z" fill="#F2CB51"/>
<path opacity="0.9" d="M49.4045 49.1549L47.0518 68.6544C46.9681 69.348 47.0687 70.0515 47.3434 70.6938C47.6181 71.3362 48.0572 71.8948 48.6165 72.3135L64.3285 84.1009C64.8875 84.5183 65.546 84.782 66.2386 84.8655C66.9312 84.9491 67.6336 84.8497 68.2758 84.5772L86.3405 76.8651C86.9816 76.5897 87.5391 76.1507 87.9572 75.5922C88.3753 75.0336 88.6394 74.375 88.723 73.6823L91.0758 54.1828C91.1578 53.4912 91.0571 52.7902 90.7838 52.1497C90.5104 51.5092 90.0739 50.9515 89.5177 50.5323L73.8057 38.7449C73.2485 38.3239 72.5897 38.058 71.8963 37.9744C71.203 37.8907 70.4998 37.9922 69.8585 38.2686L51.7937 45.9807C51.1521 46.2538 50.5936 46.6909 50.1742 47.248C49.7548 47.8051 49.4894 48.4628 49.4045 49.1549Z" fill="#F2CB51"/>
<path opacity="0.9" d="M113.175 118.328L113.174 118.327C112.825 118.067 112.552 117.719 112.381 117.319C112.21 116.919 112.147 116.481 112.199 116.049C112.199 116.049 112.199 116.049 112.199 116.049L114.552 96.5511C114.605 96.1205 114.77 95.7115 115.031 95.3649C115.292 95.018 115.64 94.7458 116.039 94.5757L116.041 94.5751L134.106 86.863L134.11 86.861C134.508 86.6895 134.945 86.6265 135.375 86.6784C135.805 86.7303 136.214 86.8953 136.56 87.1565L136.564 87.1596L152.273 98.945C152.273 98.9452 152.274 98.9454 152.274 98.9456C152.62 99.2068 152.892 99.5543 153.062 99.9534C153.233 100.352 153.296 100.789 153.245 101.219C153.245 101.22 153.245 101.22 153.245 101.221L150.892 120.717C150.892 120.717 150.892 120.717 150.892 120.717C150.84 121.149 150.675 121.56 150.415 121.908C150.154 122.256 149.807 122.529 149.408 122.701C149.408 122.701 149.407 122.701 149.407 122.702L131.348 130.411C131.348 130.411 131.347 130.412 131.346 130.412C130.946 130.581 130.508 130.643 130.077 130.591C129.645 130.539 129.235 130.375 128.886 130.115C128.885 130.115 128.885 130.114 128.884 130.114L113.175 118.328Z" fill="#F2CB51" fill-opacity="0.7" stroke="#F2CB51" stroke-width="3"/>
<path opacity="0.9" d="M4.11751 65.9456L4.1162 65.9446C3.7679 65.6839 3.49445 65.3361 3.3234 64.9361C3.15235 64.5361 3.08972 64.0981 3.1418 63.6662C3.1418 63.6661 3.1418 63.6661 3.14181 63.6661L5.49434 44.1683C5.54738 43.7377 5.71261 43.3287 5.97348 42.9821C6.23463 42.6352 6.58243 42.363 6.98199 42.1929L6.98349 42.1923L25.0482 34.4802L25.0529 34.4782C25.4509 34.3067 25.8872 34.2437 26.3175 34.2956C26.7477 34.3475 27.1565 34.5125 27.5023 34.7737L27.5064 34.7768L43.2157 46.5622C43.2159 46.5624 43.2162 46.5626 43.2164 46.5627C43.5628 46.824 43.8347 47.1715 44.005 47.5706C44.1752 47.9694 44.238 48.4058 44.1872 48.8365C44.1872 48.837 44.1871 48.8376 44.187 48.8381L41.8347 68.3346C41.8346 68.3346 41.8346 68.3347 41.8346 68.3347C41.7825 68.7665 41.6179 69.1771 41.3572 69.5253C41.0969 69.8731 40.7499 70.1464 40.351 70.3182C40.3504 70.3184 40.3499 70.3187 40.3493 70.3189L22.2907 78.0284C22.2901 78.0286 22.2895 78.0289 22.2889 78.0291C21.8885 78.1986 21.4508 78.2604 21.0191 78.2084C20.5875 78.1563 20.177 77.9921 19.8285 77.7323C19.8279 77.7319 19.8274 77.7315 19.8269 77.7311L4.11751 65.9456Z" fill="#F2CB51" fill-opacity="0.46" stroke="#F2CB51" stroke-width="3"/>
<path opacity="0.9" d="M22.1839 107.328L22.1826 107.327C21.8343 107.067 21.5609 106.719 21.3898 106.319C21.2188 105.919 21.1561 105.481 21.2082 105.049C21.2082 105.049 21.2082 105.049 21.2082 105.049L23.5607 85.5511C23.6138 85.1205 23.779 84.7115 24.0399 84.3649C24.301 84.018 24.6488 83.7458 25.0484 83.5757L25.0499 83.5751L43.1146 75.863L43.1193 75.861C43.5173 75.6895 43.9536 75.6265 44.3839 75.6784C44.8141 75.7303 45.2229 75.8953 45.5687 76.1565L45.5728 76.1596L61.2821 87.945C61.2823 87.9452 61.2826 87.9454 61.2828 87.9456C61.6292 88.2068 61.9011 88.5543 62.0714 88.9534C62.2416 89.3522 62.3044 89.7886 62.2536 90.2193C62.2536 90.2198 62.2535 90.2204 62.2534 90.2209L59.9011 109.717C59.9011 109.717 59.9011 109.717 59.9011 109.717C59.8489 110.149 59.6843 110.56 59.4236 110.908C59.1633 111.256 58.8164 111.529 58.4174 111.701C58.4168 111.701 58.4163 111.701 58.4157 111.702L40.3571 119.411C40.3565 119.411 40.3559 119.412 40.3553 119.412C39.9549 119.581 39.5172 119.643 39.0855 119.591C38.6539 119.539 38.2434 119.375 37.8949 119.115C37.8943 119.115 37.8938 119.114 37.8933 119.114L22.1839 107.328Z" fill="#F2CB51" fill-opacity="0.7" stroke="#F2CB51" stroke-width="3"/>
<path opacity="0.9" d="M157.878 123.722L157.877 123.721C157.528 123.46 157.255 123.112 157.084 122.712C156.913 122.312 156.85 121.874 156.902 121.443C156.902 121.442 156.902 121.442 156.902 121.442L159.255 101.945C159.308 101.514 159.473 101.105 159.734 100.758C159.995 100.412 160.343 100.139 160.742 99.9693L160.744 99.9687L178.809 92.2566L178.813 92.2546C179.211 92.0831 179.648 92.0201 180.078 92.072C180.508 92.1239 180.917 92.2888 181.263 92.5501L181.267 92.5532L196.976 104.339C196.976 104.339 196.977 104.339 196.977 104.339C197.323 104.6 197.595 104.948 197.765 105.347C197.936 105.746 197.999 106.182 197.948 106.613C197.948 106.613 197.948 106.614 197.948 106.614L195.595 126.111C195.595 126.111 195.595 126.111 195.595 126.111C195.543 126.543 195.378 126.953 195.118 127.302C194.857 127.649 194.51 127.923 194.111 128.095C194.111 128.095 194.11 128.095 194.11 128.095L176.051 135.805C176.051 135.805 176.05 135.805 176.049 135.805C175.649 135.975 175.211 136.037 174.78 135.985C174.348 135.933 173.938 135.769 173.589 135.509C173.588 135.508 173.588 135.508 173.587 135.507L157.878 123.722Z" fill="#F2CB51" fill-opacity="0.6" stroke="#F2CB51" stroke-width="3"/>
<path opacity="0.9" d="M202.579 129.116L202.578 129.115C202.23 128.854 201.956 128.506 201.785 128.106C201.614 127.706 201.551 127.268 201.603 126.836C201.603 126.836 201.603 126.836 201.603 126.836L203.956 107.338C204.009 106.908 204.174 106.499 204.435 106.152C204.696 105.805 205.044 105.533 205.444 105.363L205.445 105.362L223.51 97.6501L223.515 97.6481C223.913 97.4766 224.349 97.4136 224.779 97.4655C225.209 97.5174 225.618 97.6824 225.964 97.9437L225.968 97.9467L241.677 109.732C241.678 109.732 241.678 109.732 241.678 109.733C242.024 109.994 242.296 110.341 242.467 110.74C242.637 111.139 242.7 111.576 242.649 112.006C242.649 112.007 242.649 112.007 242.649 112.008L240.296 131.505C240.296 131.505 240.296 131.505 240.296 131.505C240.244 131.936 240.08 132.347 239.819 132.695C239.559 133.043 239.212 133.316 238.813 133.488C238.812 133.488 238.812 133.489 238.811 133.489L220.752 141.198C220.752 141.199 220.751 141.199 220.751 141.199C220.35 141.369 219.912 141.43 219.481 141.378C219.049 141.326 218.639 141.162 218.29 140.902C218.29 140.902 218.289 140.901 218.289 140.901L202.579 129.116Z" fill="#F2CB51" fill-opacity="0.89" stroke="#F2CB51" stroke-width="3"/>
<path opacity="0.9" d="M175.076 143.054L172.724 162.554C172.64 163.247 172.741 163.951 173.015 164.593C173.29 165.236 173.729 165.794 174.288 166.213L190 178C190.559 178.418 191.218 178.681 191.91 178.765C192.603 178.848 193.305 178.749 193.948 178.477L212.012 170.765C212.653 170.489 213.211 170.05 213.629 169.492C214.047 168.933 214.311 168.274 214.395 167.582L216.748 148.082C216.83 147.391 216.729 146.69 216.456 146.049C216.182 145.409 215.746 144.851 215.19 144.432L199.478 132.644C198.92 132.223 198.262 131.957 197.568 131.874C196.875 131.79 196.172 131.892 195.53 132.168L177.466 139.88C176.824 140.153 176.265 140.59 175.846 141.147C175.427 141.705 175.161 142.362 175.076 143.054Z" fill="#F2CB51"/>
<path opacity="0.9" d="M256.493 35.2692L254.14 54.7687C254.056 55.4623 254.157 56.1657 254.431 56.8081C254.706 57.4504 255.145 58.0091 255.705 58.4277L271.417 70.2152C271.975 70.6326 272.634 70.8962 273.327 70.9798C274.019 71.0633 274.722 70.9639 275.364 70.6914L293.429 62.9793C294.07 62.704 294.627 62.265 295.045 61.7064C295.463 61.1479 295.727 60.4893 295.811 59.7966L298.164 40.2971C298.246 39.6055 298.145 38.9045 297.872 38.264C297.598 37.6235 297.162 37.0658 296.606 36.6466L280.894 24.8592C280.337 24.4381 279.678 24.1723 278.984 24.0886C278.291 24.005 277.588 24.1065 276.946 24.3829L258.882 32.095C258.24 32.3681 257.682 32.8051 257.262 33.3623C256.843 33.9194 256.577 34.577 256.493 35.2692Z" fill="#F2CB51"/>
<path opacity="0.9" d="M301.308 62.6224L301.307 62.6214C300.958 62.3607 300.685 62.0128 300.514 61.6128C300.343 61.2128 300.28 60.7748 300.332 60.3429C300.332 60.3429 300.332 60.3429 300.332 60.3428L302.685 40.845C302.738 40.4145 302.903 40.0054 303.164 39.6589C303.425 39.3119 303.773 39.0397 304.172 38.8697L304.174 38.869L322.239 31.157L322.243 31.155C322.641 30.9835 323.078 30.9204 323.508 30.9724C323.938 31.0243 324.347 31.1892 324.693 31.4505L324.697 31.4536L340.406 43.239C340.406 43.2391 340.407 43.2393 340.407 43.2395C340.753 43.5008 341.025 43.8483 341.195 44.2473C341.366 44.6461 341.428 45.0826 341.378 45.5132C341.378 45.5138 341.378 45.5143 341.377 45.5149L339.025 65.0114C339.025 65.0114 339.025 65.0114 339.025 65.0114C338.973 65.4433 338.808 65.8539 338.548 66.2021C338.287 66.5498 337.94 66.8232 337.541 66.9949C337.541 66.9952 337.54 66.9954 337.54 66.9957L319.481 74.7051C319.481 74.7054 319.48 74.7056 319.479 74.7059C319.079 74.8754 318.641 74.9372 318.21 74.8851C317.778 74.833 317.367 74.6689 317.019 74.409C317.018 74.4086 317.018 74.4082 317.017 74.4079L301.308 62.6224Z" fill="#F2CB51" stroke="#F2CB51" stroke-width="3"/>
<path opacity="0.9" d="M273.733 98.7598L273.732 98.759C273.342 98.4667 273.035 98.0767 272.843 97.6282C272.652 97.1798 272.581 96.6887 272.64 96.2044L274.992 76.7062C275.052 76.2233 275.237 75.7646 275.53 75.3759C275.822 74.9869 276.212 74.6818 276.66 74.4911L276.662 74.4906L294.726 66.7785L294.73 66.7769C295.177 66.5844 295.666 66.5137 296.149 66.572C296.632 66.6302 297.091 66.8154 297.479 67.1086L297.482 67.111L313.192 78.8969C313.192 78.8971 313.193 78.8973 313.193 78.8976C313.581 79.1904 313.886 79.5798 314.077 80.027L315.18 79.556L314.077 80.027C314.268 80.4741 314.338 80.9633 314.281 81.446C314.281 81.4466 314.281 81.4471 314.281 81.4477L311.928 100.945C311.87 101.429 311.685 101.889 311.393 102.279C311.101 102.67 310.711 102.976 310.264 103.169L292.204 110.879C292.203 110.879 292.203 110.879 292.203 110.879C291.754 111.069 291.263 111.139 290.779 111.08C290.295 111.022 289.835 110.838 289.444 110.546C289.444 110.546 289.443 110.546 289.443 110.546L273.733 98.7598Z" fill="#F2CB51" fill-opacity="0.46" stroke="#F2CB51" stroke-width="2.4"/>
<path opacity="0.9" d="M318.504 81.9537L316.152 101.453C316.068 102.147 316.169 102.85 316.443 103.493C316.718 104.135 317.157 104.694 317.716 105.112L333.428 116.9C333.987 117.317 334.646 117.581 335.338 117.664C336.031 117.748 336.733 117.648 337.376 117.376L355.44 109.664C356.081 109.389 356.639 108.95 357.057 108.391C357.475 107.832 357.739 107.174 357.823 106.481L360.176 86.9816C360.258 86.2901 360.157 85.5891 359.884 84.9485C359.61 84.308 359.174 83.7504 358.618 83.3312L342.906 71.5437C342.348 71.1227 341.69 70.8569 340.996 70.7732C340.303 70.6895 339.6 70.7911 338.958 71.0675L320.894 78.7795C320.252 79.0526 319.693 79.4897 319.274 80.0468C318.855 80.604 318.589 81.2616 318.504 81.9537Z" fill="#F2CB51"/>
<path opacity="0.9" d="M247.166 112.55L244.813 132.05C244.73 132.744 244.83 133.447 245.105 134.089C245.38 134.732 245.819 135.29 246.378 135.709L262.09 147.496C262.649 147.914 263.308 148.177 264 148.261C264.693 148.345 265.395 148.245 266.037 147.973L284.102 140.261C284.743 139.985 285.301 139.546 285.719 138.988C286.137 138.429 286.401 137.771 286.485 137.078L288.837 117.578C288.92 116.887 288.819 116.186 288.545 115.545C288.272 114.905 287.836 114.347 287.279 113.928L271.567 102.14C271.01 101.719 270.351 101.454 269.658 101.37C268.965 101.286 268.262 101.388 267.62 101.664L249.555 109.376C248.914 109.649 248.355 110.086 247.936 110.644C247.517 111.201 247.251 111.858 247.166 112.55Z" fill="#F2CB51"/>
<path opacity="0.9" d="M291.984 139.904L291.982 139.903C291.634 139.642 291.361 139.294 291.19 138.894C291.019 138.494 290.956 138.056 291.008 137.624C291.008 137.624 291.008 137.624 291.008 137.624L293.361 118.126C293.414 117.696 293.579 117.287 293.84 116.94C294.101 116.593 294.449 116.321 294.848 116.151L294.85 116.15L312.914 108.438L312.919 108.436C313.317 108.265 313.753 108.202 314.184 108.254C314.614 108.306 315.023 108.47 315.368 108.732L315.373 108.735L331.082 120.52C331.082 120.52 331.082 120.521 331.083 120.521C331.429 120.782 331.701 121.13 331.871 121.529C332.041 121.927 332.104 122.364 332.053 122.794C332.053 122.795 332.053 122.796 332.053 122.796L329.701 142.293C329.701 142.293 329.701 142.293 329.701 142.293C329.649 142.725 329.484 143.135 329.223 143.483C328.963 143.831 328.616 144.104 328.217 144.276C328.217 144.276 328.216 144.277 328.216 144.277L310.157 151.986C310.156 151.987 310.156 151.987 310.155 151.987C309.755 152.157 309.317 152.218 308.885 152.166C308.454 152.114 308.043 151.95 307.695 151.69C307.694 151.69 307.694 151.689 307.693 151.689L291.984 139.904Z" fill="#F2CB51" fill-opacity="0.65" stroke="#F2CB51" stroke-width="3"/>
<path opacity="0.9" d="M309.292 181.195L309.291 181.194C308.943 180.933 308.669 180.585 308.498 180.185C308.327 179.785 308.265 179.347 308.317 178.915C308.317 178.915 308.317 178.915 308.317 178.915L310.669 159.417C310.722 158.987 310.887 158.578 311.148 158.231C311.409 157.884 311.757 157.612 312.157 157.442L312.158 157.441L330.223 149.729L330.228 149.727C330.626 149.556 331.062 149.493 331.492 149.545C331.923 149.597 332.331 149.762 332.677 150.023L332.681 150.026L348.39 161.811C348.391 161.811 348.391 161.812 348.391 161.812C348.738 162.073 349.009 162.421 349.18 162.82C349.35 163.218 349.413 163.655 349.362 164.085C349.362 164.086 349.362 164.087 349.362 164.087L347.009 183.584C347.009 183.584 347.009 183.584 347.009 183.584C346.957 184.016 346.793 184.426 346.532 184.774C346.272 185.122 345.925 185.395 345.526 185.567C345.525 185.567 345.525 185.568 345.524 185.568L327.465 193.277C327.465 193.278 327.464 193.278 327.464 193.278C327.063 193.448 326.626 193.509 326.194 193.457C325.762 193.405 325.352 193.241 325.003 192.981C325.003 192.981 325.002 192.981 325.002 192.98L309.292 181.195Z" fill="#F2CB51" fill-opacity="0.7" stroke="#F2CB51" stroke-width="3"/>
<path opacity="0.9" d="M279.653 84.2271C280.144 81.8647 282.286 78.5938 287.115 76.8131" stroke="white" stroke-width="3" stroke-linecap="round"/>
<path opacity="0.9" d="M262.896 87.2741C262.044 90.1241 259.165 93.8465 253.339 95.3127" stroke="white" stroke-width="3" stroke-linecap="round"/>
<path opacity="0.9" d="M323.537 88.1027C324.282 85.3343 326.646 81.8583 331.273 80.861" stroke="white" stroke-width="3" stroke-linecap="round"/>
</g>
</svg>
