<svg width="106" height="392" viewBox="0 0 106 392" fill="none" xmlns="http://www.w3.org/2000/svg">
<path opacity="0.9" d="M30.9127 390.209L45.6221 377.193C46.1453 376.73 46.5372 376.137 46.7585 375.475C46.9797 374.812 47.0225 374.103 46.8824 373.418L42.9645 354.171C42.8238 353.488 42.5065 352.853 42.0443 352.331C41.582 351.808 40.9908 351.416 40.3298 351.193L21.7025 344.962C21.0403 344.742 20.332 344.7 19.6485 344.839C18.9649 344.979 18.3301 345.296 17.8075 345.759L3.09819 358.774C2.57755 359.237 2.18725 359.828 1.96623 360.488C1.74521 361.148 1.70119 361.855 1.83856 362.538L5.75648 381.785C5.89345 382.47 6.20941 383.106 6.67221 383.63C7.13501 384.153 7.72812 384.544 8.39117 384.763L27.0184 390.995C27.6795 391.217 28.3873 391.261 29.0708 391.123C29.7544 390.985 30.3896 390.67 30.9127 390.209Z" fill="#F2CB51"/>
<path opacity="0.9" d="M59.8947 331.35L59.895 331.352C59.9823 331.778 59.9556 332.22 59.8179 332.633C59.6801 333.045 59.436 333.414 59.1102 333.703C59.1102 333.703 59.1102 333.703 59.1102 333.703L44.4021 346.717C44.0765 347.004 43.6814 347.2 43.2561 347.285C42.8305 347.371 42.3897 347.344 41.9781 347.206L41.9765 347.205L23.3493 340.973L23.3444 340.972C22.933 340.836 22.5649 340.593 22.2778 340.268C21.9906 339.944 21.7945 339.549 21.7095 339.124L21.7085 339.119L17.7913 319.875C17.7912 319.875 17.7912 319.874 17.7911 319.874C17.7057 319.449 17.7332 319.008 17.8709 318.597C18.0085 318.186 18.2514 317.818 18.5754 317.529C18.5758 317.529 18.5762 317.529 18.5766 317.528L33.2837 304.515C33.2837 304.515 33.2837 304.515 33.2837 304.515C33.6095 304.227 34.0053 304.029 34.4314 303.942C34.857 303.855 35.2979 303.881 35.7102 304.017C35.7108 304.018 35.7114 304.018 35.712 304.018L54.3329 310.248C54.3335 310.248 54.3342 310.248 54.3348 310.248C54.7467 310.387 55.115 310.632 55.4031 310.958C55.6912 311.283 55.889 311.679 55.977 312.104C55.9772 312.105 55.9773 312.106 55.9774 312.106L59.8947 331.35Z" fill="#F2CB51" fill-opacity="0.46" stroke="#F2CB51" stroke-width="3"/>
<path opacity="0.9" d="M89.2106 338.627L103.92 325.611C104.443 325.148 104.835 324.555 105.056 323.893C105.278 323.23 105.32 322.521 105.18 321.836L101.262 302.589C101.122 301.906 100.804 301.271 100.342 300.749C99.8798 300.226 99.2887 299.834 98.6276 299.611L80.0004 293.379C79.3382 293.16 78.6299 293.118 77.9463 293.257C77.2628 293.397 76.6279 293.714 76.1054 294.177L61.396 307.192C60.8754 307.655 60.4851 308.246 60.2641 308.906C60.0431 309.566 59.999 310.273 60.1364 310.956L64.0543 330.203C64.1913 330.888 64.5073 331.524 64.9701 332.047C65.4329 332.571 66.026 332.962 66.689 333.181L85.3163 339.413C85.9773 339.635 86.6852 339.679 87.3687 339.541C88.0522 339.403 88.6874 339.088 89.2106 338.627Z" fill="#F2CB51"/>
<path opacity="0.9" d="M46.1452 45.4918L60.8545 32.4763C61.3777 32.0133 61.7697 31.4207 61.9909 30.758C62.2122 30.0953 62.2549 29.386 62.1148 28.7016L58.1969 9.45421C58.0562 8.77094 57.739 8.13645 57.2767 7.61401C56.8144 7.09156 56.2233 6.69941 55.5622 6.47664L36.9349 0.244714C36.2727 0.0248433 35.5644 -0.0172448 34.8809 0.122652C34.1973 0.262549 33.5625 0.57953 33.04 1.04187L18.3306 14.0573C17.81 14.5199 17.4197 15.1108 17.1987 15.7712C16.9776 16.4316 16.9336 17.1384 17.071 17.8212L20.9889 37.0686C21.1259 37.7534 21.4418 38.3897 21.9046 38.9127C22.3674 39.4357 22.9605 39.8268 23.6236 40.0461L42.2508 46.2781C42.9119 46.5 43.6197 46.5442 44.3033 46.4062C44.9868 46.2682 45.622 45.9528 46.1452 45.4918Z" fill="#F2CB51"/>
<path opacity="0.9" d="M75.6063 382.481L90.3157 369.466C90.8389 369.003 91.2308 368.41 91.4521 367.747C91.6733 367.085 91.7161 366.375 91.576 365.691L87.6581 346.443C87.5174 345.76 87.2001 345.126 86.7379 344.603C86.2756 344.081 85.6844 343.689 85.0234 343.466L66.3961 337.234C65.7339 337.014 65.0256 336.972 64.3421 337.112C63.6585 337.252 63.0237 337.569 62.5011 338.031L47.7918 351.047C47.2711 351.509 46.8808 352.1 46.6598 352.76C46.4388 353.421 46.3948 354.128 46.5322 354.81L50.4501 374.058C50.5871 374.743 50.903 375.379 51.3658 375.902C51.8286 376.425 52.4217 376.816 53.0848 377.035L71.712 383.267C72.3731 383.489 73.0809 383.533 73.7644 383.395C74.448 383.257 75.0832 382.942 75.6063 382.481Z" fill="#F2CB51"/>
<path opacity="0.9" d="M73.872 288.414L73.8723 288.415C73.9595 288.842 73.9329 289.283 73.7952 289.696C73.6574 290.109 73.4133 290.478 73.0875 290.766C73.0875 290.766 73.0875 290.766 73.0875 290.766L58.3794 303.78C58.0538 304.067 57.6586 304.263 57.2334 304.349C56.8078 304.435 56.367 304.407 55.9554 304.269L55.9538 304.269L37.3266 298.037L37.3217 298.035C36.9103 297.899 36.5422 297.656 36.2551 297.332C35.9679 297.007 35.7718 296.612 35.6868 296.187L35.6858 296.182L31.7686 276.938C31.7685 276.938 31.7684 276.938 31.7684 276.938C31.683 276.512 31.7105 276.072 31.8482 275.66C31.9858 275.249 32.2287 274.881 32.5526 274.593C32.5531 274.593 32.5535 274.592 32.5539 274.592L47.261 261.578C47.261 261.578 47.261 261.578 47.261 261.578C47.5868 261.29 47.9826 261.092 48.4087 261.005C48.8343 260.918 49.2752 260.944 49.6875 261.081C49.6881 261.081 49.6887 261.081 49.6893 261.081L68.3102 267.311C68.3108 267.311 68.3114 267.312 68.3121 267.312C68.724 267.451 69.0923 267.695 69.3804 268.021C69.6685 268.347 69.8663 268.742 69.9543 269.168C69.9545 269.168 69.9546 269.169 69.9547 269.17L73.872 288.414Z" fill="#F2CB51" fill-opacity="0.7" stroke="#F2CB51" stroke-width="3"/>
<path opacity="0.9" d="M47.6449 78.0018L47.6453 78.0034C47.7325 78.4296 47.7059 78.8713 47.5681 79.2839C47.4303 79.6965 47.1863 80.0656 46.8605 80.3539C46.8605 80.3539 46.8605 80.3539 46.8604 80.354L32.1524 93.3683C31.8268 93.6549 31.4316 93.851 31.0064 93.9369C30.5807 94.0228 30.14 93.9953 29.7283 93.857L29.7268 93.8565L11.0995 87.6246L11.0947 87.623C10.6832 87.4869 10.3152 87.2442 10.028 86.9197C9.74083 86.5951 9.54477 86.2003 9.45978 85.7753L9.45876 85.7703L5.54151 66.5263C5.54146 66.526 5.5414 66.5257 5.54134 66.5254C5.45591 66.1 5.48341 65.6597 5.62111 65.2482C5.75872 64.837 6.00161 64.469 6.3256 64.1808C6.32602 64.1804 6.32643 64.1801 6.32684 64.1797L21.0339 51.1663C21.0339 51.1662 21.0339 51.1662 21.034 51.1662C21.3597 50.878 21.7555 50.6804 22.1816 50.5932C22.6072 50.5061 23.0482 50.5321 23.4605 50.6687C23.4611 50.6689 23.4616 50.6691 23.4622 50.6693L42.0832 56.8991C42.0837 56.8993 42.0843 56.8995 42.0849 56.8996C42.4968 57.0388 42.8652 57.2833 43.1533 57.609C43.4415 57.9346 43.6393 58.33 43.7273 58.7558C43.7274 58.7564 43.7276 58.757 43.7277 58.7576L47.6449 78.0018Z" fill="#F2CB51" fill-opacity="0.7" stroke="#F2CB51" stroke-width="3"/>
<path opacity="0.9" d="M44.0341 254.692L44.0344 254.694C44.1217 255.12 44.095 255.562 43.9573 255.974C43.8195 256.387 43.5754 256.756 43.2497 257.044C43.2496 257.044 43.2496 257.044 43.2496 257.044L28.5415 270.059C28.2159 270.345 27.8208 270.541 27.3955 270.627C26.9699 270.713 26.5291 270.686 26.1175 270.547L26.1159 270.547L7.48867 264.315L7.48381 264.313C7.07238 264.177 6.70433 263.935 6.41716 263.61C6.12999 263.286 5.93393 262.891 5.84894 262.466L5.84792 262.461L1.93067 243.217C1.93062 243.216 1.93056 243.216 1.9305 243.216C1.84507 242.79 1.87257 242.35 2.01027 241.939C2.14788 241.527 2.39077 241.159 2.71476 240.871C2.71517 240.871 2.71558 240.87 2.71599 240.87L17.4231 227.857C17.4231 227.857 17.4231 227.857 17.4231 227.857C17.7489 227.568 18.1447 227.371 18.5708 227.284C18.9964 227.196 19.4373 227.223 19.8496 227.359C19.8502 227.359 19.8508 227.36 19.8514 227.36L38.4723 233.589C38.4729 233.59 38.4736 233.59 38.4742 233.59C38.8861 233.729 39.2544 233.974 39.5425 234.299C39.8306 234.625 40.0285 235.02 40.1164 235.446C40.1166 235.447 40.1167 235.447 40.1168 235.448L44.0341 254.692Z" fill="#F2CB51" fill-opacity="0.6" stroke="#F2CB51" stroke-width="3"/>
<path opacity="0.9" d="M44.0158 228.817L58.7251 215.802C59.2483 215.339 59.6403 214.746 59.8615 214.083C60.0828 213.42 60.1255 212.711 59.9854 212.027L56.0675 192.779C55.9268 192.096 55.6096 191.462 55.1473 190.939C54.685 190.417 54.0939 190.025 53.4328 189.802L34.8055 183.57C34.1434 183.35 33.4351 183.308 32.7515 183.448C32.0679 183.588 31.4331 183.905 30.9106 184.367L16.2012 197.383C15.6806 197.845 15.2903 198.436 15.0693 199.096C14.8482 199.757 14.8042 200.464 14.9416 201.146L18.8595 220.394C18.9965 221.079 19.3124 221.715 19.7752 222.238C20.238 222.761 20.8311 223.152 21.4942 223.371L40.1215 229.603C40.7825 229.825 41.4903 229.869 42.1739 229.731C42.8574 229.593 43.4926 229.278 44.0158 228.817Z" fill="#F2CB51"/>
<path opacity="0.9" d="M44.9997 270.758C47.0422 268.787 50.7022 267.027 54.7815 268.496" stroke="white" stroke-width="3" stroke-linecap="round"/>
<path opacity="0.9" d="M91.4828 330.007C89.4055 331.983 85.5779 333.721 81.1082 332.164" stroke="white" stroke-width="3" stroke-linecap="round"/>
</svg>
