<svg width="165" height="299" viewBox="0 0 165 299" fill="none" xmlns="http://www.w3.org/2000/svg">
<rect x="1" y="1.5957" width="162.083" height="296.214" rx="6" stroke="#BDBDBD" stroke-width="2"/>
<line x1="163.781" y1="63.1035" x2="163.781" y2="83.9395" stroke="#BDBDBD" stroke-width="2"/>
<line x1="163.781" y1="96.9609" x2="163.781" y2="136.028" stroke="#BDBDBD" stroke-width="2"/>
<path d="M83.2438 149.872C83.0642 149.662 83.0886 149.346 83.2984 149.167L86.7166 146.24C86.9264 146.06 87.242 146.085 87.4216 146.295C87.6012 146.504 87.5768 146.82 87.367 147L84.3286 149.601L86.9301 152.64C87.1097 152.849 87.0852 153.165 86.8754 153.345C86.6657 153.524 86.35 153.5 86.1704 153.29L83.2438 149.872ZM85.039 150.158L83.5849 150.045L83.6622 149.048L85.1163 149.161L85.039 150.158Z" fill="#BDBDBD"/>
<path d="M83.7133 149.485C87.2512 149.726 90.5962 151.186 93.1783 153.616C95.7603 156.047 97.4197 159.298 97.8738 162.815C98.3278 166.332 97.5483 169.897 95.6682 172.904C93.788 175.91 90.9235 178.172 87.5628 179.303C84.202 180.435 80.5529 180.366 77.2373 179.108C73.9216 177.851 71.1445 175.483 69.3792 172.407C67.6139 169.332 66.9696 165.739 67.556 162.242C68.1424 158.745 69.9234 155.559 72.5953 153.228" stroke="#BDBDBD"/>
</svg>
