<svg width="43" height="43" viewBox="0 0 43 43" fill="none" xmlns="http://www.w3.org/2000/svg">
<path d="M33.3346 12.1914C33.7251 11.8008 33.7251 11.1677 33.3346 10.7772L32.2226 9.66512C31.832 9.27459 31.1989 9.27459 30.8084 9.66511L22.2071 18.2663C21.8166 18.6568 21.1835 18.6568 20.7929 18.2663L12.1917 9.66511C11.8012 9.27459 11.168 9.27459 10.7775 9.66511L9.66548 10.7772C9.27496 11.1677 9.27496 11.8008 9.66548 12.1914L18.2667 20.7926C18.6572 21.1831 18.6572 21.8163 18.2667 22.2068L9.66548 30.808C9.27496 31.1985 9.27496 31.8317 9.66548 32.2222L10.7775 33.3342C11.168 33.7248 11.8012 33.7248 12.1917 33.3342L20.7929 24.733C21.1835 24.3425 21.8166 24.3425 22.2071 24.733L30.8084 33.3342C31.1989 33.7248 31.832 33.7248 32.2226 33.3342L33.3346 32.2222C33.7251 31.8317 33.7251 31.1985 33.3346 30.808L24.7334 22.2068C24.3429 21.8163 24.3429 21.1831 24.7334 20.7926L33.3346 12.1914Z" fill="#E8E8E8"/>
</svg>
