<svg width="137" height="30" viewBox="0 0 137 30" fill="none" xmlns="http://www.w3.org/2000/svg">
<rect opacity="0.7" width="137" height="30" rx="3" fill="black"/>
<path d="M30.4196 10.9H31.7196V18.869H36.6466V20H30.4196V10.9ZM38.0863 13.11H39.3343V20H38.0863V13.11ZM38.7103 11.784C38.4677 11.784 38.264 11.706 38.0993 11.55C37.9433 11.394 37.8653 11.2033 37.8653 10.978C37.8653 10.7527 37.9433 10.562 38.0993 10.406C38.264 10.2413 38.4677 10.159 38.7103 10.159C38.953 10.159 39.1523 10.237 39.3083 10.393C39.473 10.5403 39.5553 10.7267 39.5553 10.952C39.5553 11.186 39.473 11.3853 39.3083 11.55C39.1523 11.706 38.953 11.784 38.7103 11.784ZM45.5262 13.045C46.4015 13.045 47.0949 13.3007 47.6062 13.812C48.1262 14.3147 48.3862 15.0557 48.3862 16.035V20H47.1382V16.178C47.1382 15.5107 46.9779 15.008 46.6572 14.67C46.3365 14.332 45.8772 14.163 45.2792 14.163C44.6032 14.163 44.0702 14.3623 43.6802 14.761C43.2902 15.151 43.0952 15.7143 43.0952 16.451V20H41.8472V13.11H43.0432V14.15C43.2945 13.7947 43.6325 13.5217 44.0572 13.331C44.4905 13.1403 44.9802 13.045 45.5262 13.045ZM53.5038 16.789L52.0738 18.115V20H50.8258V10.354H52.0738V16.542L55.8308 13.11H57.3388L54.4398 15.957L57.6248 20H56.0908L53.5038 16.789ZM65.5908 20.078C64.8888 20.078 64.2605 19.9263 63.7058 19.623C63.1598 19.3197 62.7308 18.9037 62.4188 18.375C62.1068 17.8377 61.9508 17.231 61.9508 16.555C61.9508 15.879 62.1068 15.2767 62.4188 14.748C62.7308 14.2107 63.1598 13.7947 63.7058 13.5C64.2605 13.1967 64.8888 13.045 65.5908 13.045C66.2148 13.045 66.7695 13.1707 67.2548 13.422C67.7488 13.6733 68.1301 14.0373 68.3988 14.514L67.4498 15.125C67.2331 14.7957 66.9645 14.5487 66.6438 14.384C66.3231 14.2193 65.9678 14.137 65.5778 14.137C65.1271 14.137 64.7198 14.2367 64.3558 14.436C64.0005 14.6353 63.7188 14.9213 63.5108 15.294C63.3115 15.658 63.2118 16.0783 63.2118 16.555C63.2118 17.0403 63.3115 17.4693 63.5108 17.842C63.7188 18.206 64.0005 18.4877 64.3558 18.687C64.7198 18.8863 65.1271 18.986 65.5778 18.986C65.9678 18.986 66.3231 18.9037 66.6438 18.739C66.9645 18.5743 67.2331 18.3273 67.4498 17.998L68.3988 18.596C68.1301 19.0727 67.7488 19.441 67.2548 19.701C66.7695 19.9523 66.2148 20.078 65.5908 20.078ZM72.994 20.078C72.3093 20.078 71.694 19.9263 71.148 19.623C70.602 19.3197 70.173 18.9037 69.861 18.375C69.5576 17.8377 69.406 17.231 69.406 16.555C69.406 15.879 69.5576 15.2767 69.861 14.748C70.173 14.2107 70.602 13.7947 71.148 13.5C71.694 13.1967 72.3093 13.045 72.994 13.045C73.6786 13.045 74.2896 13.1967 74.827 13.5C75.373 13.7947 75.7976 14.2107 76.101 14.748C76.413 15.2767 76.569 15.879 76.569 16.555C76.569 17.231 76.413 17.8377 76.101 18.375C75.7976 18.9037 75.373 19.3197 74.827 19.623C74.2896 19.9263 73.6786 20.078 72.994 20.078ZM72.994 18.986C73.436 18.986 73.8303 18.8863 74.177 18.687C74.5323 18.479 74.8096 18.193 75.009 17.829C75.2083 17.4563 75.308 17.0317 75.308 16.555C75.308 16.0783 75.2083 15.658 75.009 15.294C74.8096 14.9213 74.5323 14.6353 74.177 14.436C73.8303 14.2367 73.436 14.137 72.994 14.137C72.552 14.137 72.1533 14.2367 71.798 14.436C71.4513 14.6353 71.174 14.9213 70.966 15.294C70.7666 15.658 70.667 16.0783 70.667 16.555C70.667 17.0317 70.7666 17.4563 70.966 17.829C71.174 18.193 71.4513 18.479 71.798 18.687C72.1533 18.8863 72.552 18.986 72.994 18.986ZM82.0779 13.045C82.7453 13.045 83.3433 13.1923 83.8719 13.487C84.4006 13.7817 84.8123 14.1933 85.1069 14.722C85.4103 15.2507 85.5619 15.8617 85.5619 16.555C85.5619 17.2483 85.4103 17.8637 85.1069 18.401C84.8123 18.9297 84.4006 19.3413 83.8719 19.636C83.3433 19.9307 82.7453 20.078 82.0779 20.078C81.5839 20.078 81.1289 19.9827 80.7129 19.792C80.3056 19.6013 79.9589 19.324 79.6729 18.96V22.522H78.4249V13.11H79.6209V14.202C79.8983 13.8207 80.2493 13.5347 80.6739 13.344C81.0986 13.1447 81.5666 13.045 82.0779 13.045ZM81.9739 18.986C82.4159 18.986 82.8103 18.8863 83.1569 18.687C83.5123 18.479 83.7896 18.193 83.9889 17.829C84.1969 17.4563 84.3009 17.0317 84.3009 16.555C84.3009 16.0783 84.1969 15.658 83.9889 15.294C83.7896 14.9213 83.5123 14.6353 83.1569 14.436C82.8103 14.2367 82.4159 14.137 81.9739 14.137C81.5406 14.137 81.1463 14.241 80.7909 14.449C80.4443 14.6483 80.1669 14.93 79.9589 15.294C79.7596 15.658 79.6599 16.0783 79.6599 16.555C79.6599 17.0317 79.7596 17.4563 79.9589 17.829C80.1583 18.193 80.4356 18.479 80.7909 18.687C81.1463 18.8863 81.5406 18.986 81.9739 18.986ZM87.4163 13.11H88.6643V20H87.4163V13.11ZM88.0403 11.784C87.7976 11.784 87.5939 11.706 87.4293 11.55C87.2733 11.394 87.1953 11.2033 87.1953 10.978C87.1953 10.7527 87.2733 10.562 87.4293 10.406C87.5939 10.2413 87.7976 10.159 88.0403 10.159C88.2829 10.159 88.4823 10.237 88.6383 10.393C88.8029 10.5403 88.8853 10.7267 88.8853 10.952C88.8853 11.186 88.8029 11.3853 88.6383 11.55C88.4823 11.706 88.2829 11.784 88.0403 11.784ZM97.4041 16.594C97.4041 16.6893 97.3955 16.815 97.3781 16.971H91.7881C91.8661 17.5777 92.1305 18.0673 92.5811 18.44C93.0405 18.804 93.6081 18.986 94.2841 18.986C95.1075 18.986 95.7705 18.7087 96.2731 18.154L96.9621 18.96C96.6501 19.324 96.2601 19.6013 95.7921 19.792C95.3328 19.9827 94.8171 20.078 94.2451 20.078C93.5171 20.078 92.8715 19.9307 92.3081 19.636C91.7448 19.3327 91.3071 18.9123 90.9951 18.375C90.6918 17.8377 90.5401 17.231 90.5401 16.555C90.5401 15.8877 90.6875 15.2853 90.9821 14.748C91.2855 14.2107 91.6971 13.7947 92.2171 13.5C92.7458 13.1967 93.3395 13.045 93.9981 13.045C94.6568 13.045 95.2418 13.1967 95.7531 13.5C96.2731 13.7947 96.6761 14.2107 96.9621 14.748C97.2568 15.2853 97.4041 15.9007 97.4041 16.594ZM93.9981 14.098C93.4001 14.098 92.8975 14.28 92.4901 14.644C92.0915 15.008 91.8575 15.4847 91.7881 16.074H96.2081C96.1388 15.4933 95.9005 15.021 95.4931 14.657C95.0945 14.2843 94.5961 14.098 93.9981 14.098ZM105.767 10.354V20H104.571V18.908C104.294 19.2893 103.943 19.5797 103.518 19.779C103.093 19.9783 102.625 20.078 102.114 20.078C101.447 20.078 100.849 19.9307 100.32 19.636C99.7914 19.3413 99.3754 18.9297 99.0721 18.401C98.7774 17.8637 98.6301 17.2483 98.6301 16.555C98.6301 15.8617 98.7774 15.2507 99.0721 14.722C99.3754 14.1933 99.7914 13.7817 100.32 13.487C100.849 13.1923 101.447 13.045 102.114 13.045C102.608 13.045 103.063 13.1403 103.479 13.331C103.895 13.513 104.242 13.786 104.519 14.15V10.354H105.767ZM102.218 18.986C102.651 18.986 103.046 18.8863 103.401 18.687C103.756 18.479 104.034 18.193 104.233 17.829C104.432 17.4563 104.532 17.0317 104.532 16.555C104.532 16.0783 104.432 15.658 104.233 15.294C104.034 14.9213 103.756 14.6353 103.401 14.436C103.046 14.2367 102.651 14.137 102.218 14.137C101.776 14.137 101.377 14.2367 101.022 14.436C100.675 14.6353 100.398 14.9213 100.19 15.294C99.9908 15.658 99.8911 16.0783 99.8911 16.555C99.8911 17.0317 99.9908 17.4563 100.19 17.829C100.398 18.193 100.675 18.479 101.022 18.687C101.377 18.8863 101.776 18.986 102.218 18.986Z" fill="white"/>
</svg>
